<svg xmlns="http://www.w3.org/2000/svg" xmlns:xlink="http://www.w3.org/1999/xlink" width="1366" zoomAndPan="magnify" viewBox="0 0 1024.5 576" height="768" preserveAspectRatio="xMidYMid meet" version="1.0"><defs><g/><clipPath id="0754753a9d"><path d="M 0 0.140625 L 1024 0.140625 L 1024 575.859375 L 0 575.859375 Z M 0 0.140625 " clip-rule="nonzero"/></clipPath></defs><g clip-path="url(#0754753a9d)"><path fill="#ffffff" d="M 0 0.140625 L 1024.5 0.140625 L 1024.5 583.640625 L 0 583.640625 Z M 0 0.140625 " fill-opacity="1" fill-rule="nonzero"/><path fill="#ffffff" d="M 0 0.140625 L 1024.5 0.140625 L 1024.5 576.140625 L 0 576.140625 Z M 0 0.140625 " fill-opacity="1" fill-rule="nonzero"/><path fill="#000000" d="M 0 0.140625 L 1024.5 0.140625 L 1024.5 576.140625 L 0 576.140625 Z M 0 0.140625 " fill-opacity="1" fill-rule="nonzero"/></g><g fill="#b621fe" fill-opacity="1"><g transform="translate(481.568427, 485.649372)"><g><path d="M 10.671875 0 C 10.765625 -0.0820312 10.8125 -0.210938 10.8125 -0.390625 C 10.8125 -0.429688 10.800781 -0.519531 10.78125 -0.65625 C 10.5 -0.664062 10.265625 -0.679688 10.078125 -0.703125 C 9.898438 -0.734375 9.738281 -0.804688 9.59375 -0.921875 C 9.445312 -1.035156 9.375 -1.203125 9.375 -1.421875 C 9.375 -1.890625 9.503906 -2.6875 9.765625 -3.8125 C 10.035156 -4.945312 10.367188 -6.265625 10.765625 -7.765625 L 11.140625 -9.203125 C 11.210938 -9.523438 11.316406 -9.773438 11.453125 -9.953125 C 11.597656 -10.128906 11.78125 -10.253906 12 -10.328125 C 12.21875 -10.398438 12.492188 -10.4375 12.828125 -10.4375 L 13.015625 -10.9375 L 12.953125 -11.109375 L 8.375 -11.109375 C 8.28125 -11.015625 8.234375 -10.882812 8.234375 -10.71875 C 8.234375 -10.675781 8.234375 -10.628906 8.234375 -10.578125 C 8.242188 -10.523438 8.253906 -10.484375 8.265625 -10.453125 C 8.535156 -10.441406 8.757812 -10.421875 8.9375 -10.390625 C 9.125 -10.367188 9.289062 -10.300781 9.4375 -10.1875 C 9.582031 -10.082031 9.65625 -9.914062 9.65625 -9.6875 C 9.65625 -9.3125 9.613281 -8.9375 9.53125 -8.5625 C 9.457031 -8.195312 9.335938 -7.734375 9.171875 -7.171875 C 9.035156 -6.679688 8.9375 -6.316406 8.875 -6.078125 L 3.859375 -6.078125 L 4.578125 -9.1875 C 4.679688 -9.65625 4.851562 -9.984375 5.09375 -10.171875 C 5.34375 -10.359375 5.710938 -10.453125 6.203125 -10.453125 C 6.316406 -10.628906 6.375 -10.789062 6.375 -10.9375 C 6.375 -10.96875 6.363281 -11 6.34375 -11.03125 C 6.332031 -11.070312 6.320312 -11.097656 6.3125 -11.109375 L 1.8125 -11.109375 C 1.71875 -11.015625 1.671875 -10.882812 1.671875 -10.71875 C 1.671875 -10.675781 1.675781 -10.628906 1.6875 -10.578125 C 1.695312 -10.535156 1.703125 -10.492188 1.703125 -10.453125 C 1.972656 -10.441406 2.195312 -10.421875 2.375 -10.390625 C 2.5625 -10.367188 2.726562 -10.304688 2.875 -10.203125 C 3.03125 -10.097656 3.109375 -9.9375 3.109375 -9.71875 C 3.109375 -9.082031 2.992188 -8.273438 2.765625 -7.296875 C 2.546875 -6.328125 2.238281 -5.125 1.84375 -3.6875 C 1.789062 -3.5 1.707031 -3.210938 1.59375 -2.828125 C 1.488281 -2.453125 1.410156 -2.144531 1.359375 -1.90625 C 1.234375 -1.4375 1.039062 -1.109375 0.78125 -0.921875 C 0.519531 -0.742188 0.144531 -0.65625 -0.34375 -0.65625 L -0.53125 -0.171875 L -0.46875 0 L 4.109375 0 C 4.203125 -0.09375 4.25 -0.222656 4.25 -0.390625 C 4.25 -0.429688 4.242188 -0.476562 4.234375 -0.53125 C 4.234375 -0.582031 4.226562 -0.625 4.21875 -0.65625 C 3.9375 -0.664062 3.703125 -0.6875 3.515625 -0.71875 C 3.335938 -0.75 3.175781 -0.816406 3.03125 -0.921875 C 2.894531 -1.035156 2.828125 -1.207031 2.828125 -1.4375 C 2.828125 -1.851562 2.875 -2.273438 2.96875 -2.703125 C 3.070312 -3.140625 3.21875 -3.679688 3.40625 -4.328125 C 3.582031 -4.921875 3.695312 -5.332031 3.75 -5.5625 L 8.765625 -5.5625 L 7.90625 -1.90625 C 7.800781 -1.4375 7.625 -1.109375 7.375 -0.921875 C 7.125 -0.742188 6.757812 -0.65625 6.28125 -0.65625 L 6.09375 -0.171875 L 6.171875 0 Z M 10.671875 0 "/></g></g><g transform="translate(493.407293, 485.649372)"><g><path d="M 4.375 -9.59375 C 4.601562 -9.59375 4.78125 -9.664062 4.90625 -9.8125 C 5.039062 -9.957031 5.109375 -10.191406 5.109375 -10.515625 C 5.078125 -10.835938 4.957031 -11.082031 4.75 -11.25 C 4.550781 -11.425781 4.320312 -11.515625 4.0625 -11.515625 C 3.820312 -11.515625 3.628906 -11.441406 3.484375 -11.296875 C 3.335938 -11.160156 3.265625 -10.960938 3.265625 -10.703125 C 3.265625 -10.472656 3.316406 -10.273438 3.421875 -10.109375 C 3.535156 -9.941406 3.675781 -9.8125 3.84375 -9.71875 C 4.019531 -9.632812 4.195312 -9.59375 4.375 -9.59375 Z M 4.5 -1.84375 C 4.269531 -1.488281 4.054688 -1.222656 3.859375 -1.046875 C 3.671875 -0.878906 3.488281 -0.796875 3.3125 -0.796875 C 3.132812 -0.796875 3.007812 -0.859375 2.9375 -0.984375 C 2.875 -1.109375 2.84375 -1.257812 2.84375 -1.4375 C 2.84375 -1.582031 2.851562 -1.726562 2.875 -1.875 C 2.90625 -2.019531 2.941406 -2.140625 2.984375 -2.234375 L 3.90625 -5.078125 C 4.039062 -5.515625 4.109375 -5.941406 4.109375 -6.359375 C 4.109375 -7.335938 3.679688 -7.828125 2.828125 -7.828125 C 2.503906 -7.828125 2.195312 -7.734375 1.90625 -7.546875 C 1.625 -7.367188 1.351562 -7.132812 1.09375 -6.84375 C 0.84375 -6.5625 0.53125 -6.164062 0.15625 -5.65625 L 0.609375 -5.3125 C 1.109375 -6 1.476562 -6.460938 1.71875 -6.703125 C 1.96875 -6.953125 2.171875 -7.078125 2.328125 -7.078125 C 2.484375 -7.078125 2.601562 -7.023438 2.6875 -6.921875 C 2.78125 -6.816406 2.828125 -6.671875 2.828125 -6.484375 C 2.828125 -6.347656 2.796875 -6.203125 2.734375 -6.046875 C 2.679688 -5.890625 2.648438 -5.789062 2.640625 -5.75 L 1.765625 -3.25 C 1.628906 -2.882812 1.523438 -2.554688 1.453125 -2.265625 C 1.378906 -1.984375 1.34375 -1.707031 1.34375 -1.4375 C 1.34375 -1.144531 1.398438 -0.875 1.515625 -0.625 C 1.628906 -0.382812 1.789062 -0.191406 2 -0.046875 C 2.207031 0.0976562 2.453125 0.171875 2.734375 0.171875 C 3.203125 0.171875 3.617188 0.0234375 3.984375 -0.265625 C 4.359375 -0.554688 4.707031 -0.941406 5.03125 -1.421875 L 5.578125 -2.203125 L 5 -2.59375 Z M 4.5 -1.84375 "/></g></g><g transform="translate(498.979558, 485.649372)"><g><path d="M 2.9375 -7.671875 C 2.40625 -7.671875 1.914062 -7.472656 1.46875 -7.078125 C 1.019531 -6.679688 0.570312 -6.160156 0.125 -5.515625 L 0.609375 -5.078125 C 0.828125 -5.421875 1.003906 -5.691406 1.140625 -5.890625 C 1.285156 -6.085938 1.457031 -6.273438 1.65625 -6.453125 C 1.851562 -6.640625 2.050781 -6.734375 2.25 -6.734375 C 2.394531 -6.734375 2.492188 -6.6875 2.546875 -6.59375 C 2.597656 -6.5 2.625 -6.40625 2.625 -6.3125 C 2.625 -6.039062 2.550781 -5.59375 2.40625 -4.96875 C 2.269531 -4.351562 2.023438 -3.507812 1.671875 -2.4375 C 1.597656 -2.207031 1.5625 -2.09375 1.5625 -2.09375 C 1.4375 -1.757812 1.34375 -1.488281 1.28125 -1.28125 C 1.226562 -1.082031 1.203125 -0.894531 1.203125 -0.71875 C 1.203125 -0.4375 1.25 -0.226562 1.34375 -0.09375 C 1.445312 0.0390625 1.578125 0.109375 1.734375 0.109375 C 1.972656 0.109375 2.179688 0.0234375 2.359375 -0.140625 C 2.546875 -0.304688 2.734375 -0.570312 2.921875 -0.9375 C 3.160156 -1.425781 3.484375 -2.019531 3.890625 -2.71875 C 4.304688 -3.414062 4.734375 -4.054688 5.171875 -4.640625 C 5.617188 -5.222656 6 -5.59375 6.3125 -5.75 C 6.382812 -5.789062 6.484375 -5.832031 6.609375 -5.875 C 6.734375 -5.925781 6.832031 -5.96875 6.90625 -6 C 7.1875 -6.101562 7.414062 -6.195312 7.59375 -6.28125 C 7.769531 -6.363281 7.921875 -6.46875 8.046875 -6.59375 C 8.179688 -6.726562 8.25 -6.882812 8.25 -7.0625 C 8.25 -7.257812 8.160156 -7.4375 7.984375 -7.59375 C 7.816406 -7.757812 7.628906 -7.84375 7.421875 -7.84375 C 7.015625 -7.84375 6.613281 -7.664062 6.21875 -7.3125 C 5.820312 -6.957031 5.472656 -6.546875 5.171875 -6.078125 C 4.867188 -5.609375 4.53125 -5.039062 4.15625 -4.375 C 4 -4.113281 3.867188 -3.890625 3.765625 -3.703125 L 2.953125 -2.265625 L 2.78125 -2.34375 L 2.9375 -2.828125 C 3.269531 -3.804688 3.515625 -4.570312 3.671875 -5.125 C 3.828125 -5.6875 3.90625 -6.160156 3.90625 -6.546875 C 3.90625 -6.878906 3.820312 -7.148438 3.65625 -7.359375 C 3.5 -7.566406 3.257812 -7.671875 2.9375 -7.671875 Z M 2.9375 -7.671875 "/></g></g><g transform="translate(506.626041, 485.649372)"><g><path d="M 4.78125 -7.828125 C 4.050781 -7.828125 3.367188 -7.628906 2.734375 -7.234375 C 2.097656 -6.847656 1.585938 -6.320312 1.203125 -5.65625 C 0.816406 -5 0.625 -4.273438 0.625 -3.484375 C 0.625 -2.828125 0.769531 -2.21875 1.0625 -1.65625 C 1.363281 -1.09375 1.769531 -0.644531 2.28125 -0.3125 C 2.800781 0.0078125 3.359375 0.171875 3.953125 0.171875 C 4.617188 0.171875 5.253906 -0.0351562 5.859375 -0.453125 C 6.460938 -0.878906 7.003906 -1.421875 7.484375 -2.078125 L 6.859375 -2.484375 C 6.566406 -2.109375 6.296875 -1.796875 6.046875 -1.546875 C 5.796875 -1.304688 5.503906 -1.101562 5.171875 -0.9375 C 4.847656 -0.769531 4.488281 -0.6875 4.09375 -0.6875 C 3.738281 -0.6875 3.414062 -0.785156 3.125 -0.984375 C 2.832031 -1.179688 2.597656 -1.4375 2.421875 -1.75 C 2.253906 -2.0625 2.171875 -2.382812 2.171875 -2.71875 L 2.1875 -3.0625 C 2.945312 -3.113281 3.6875 -3.203125 4.40625 -3.328125 C 5.132812 -3.460938 5.789062 -3.710938 6.375 -4.078125 C 6.96875 -4.453125 7.265625 -4.972656 7.265625 -5.640625 C 7.265625 -6.109375 7.140625 -6.503906 6.890625 -6.828125 C 6.640625 -7.160156 6.320312 -7.410156 5.9375 -7.578125 C 5.5625 -7.742188 5.175781 -7.828125 4.78125 -7.828125 Z M 4.796875 -7.1875 C 5.003906 -7.1875 5.203125 -7.128906 5.390625 -7.015625 C 5.578125 -6.898438 5.726562 -6.738281 5.84375 -6.53125 C 5.96875 -6.332031 6.03125 -6.113281 6.03125 -5.875 C 6.03125 -5.40625 5.820312 -5.003906 5.40625 -4.671875 C 5 -4.347656 4.515625 -4.101562 3.953125 -3.9375 C 3.398438 -3.769531 2.925781 -3.6875 2.53125 -3.6875 C 2.476562 -3.6875 2.363281 -3.691406 2.1875 -3.703125 C 2.21875 -4.210938 2.335938 -4.738281 2.546875 -5.28125 C 2.765625 -5.820312 3.0625 -6.273438 3.4375 -6.640625 C 3.820312 -7.003906 4.273438 -7.1875 4.796875 -7.1875 Z M 4.796875 -7.1875 "/></g></g><g transform="translate(514.632876, 485.649372)"><g/></g><g transform="translate(518.596743, 485.649372)"><g><path d="M 8.515625 -2.328125 C 8.898438 -3.179688 9.203125 -3.9375 9.421875 -4.59375 C 9.640625 -5.257812 9.75 -5.84375 9.75 -6.34375 C 9.75 -6.832031 9.644531 -7.203125 9.4375 -7.453125 C 9.238281 -7.703125 8.894531 -7.828125 8.40625 -7.828125 C 7.90625 -7.828125 7.359375 -7.550781 6.765625 -7 C 6.179688 -6.457031 5.648438 -5.835938 5.171875 -5.140625 C 4.691406 -4.453125 4.179688 -3.675781 3.640625 -2.8125 L 3.28125 -2.234375 L 3.125 -2.34375 L 3.203125 -2.515625 C 3.285156 -2.691406 3.410156 -3.035156 3.578125 -3.546875 C 3.753906 -4.066406 3.910156 -4.601562 4.046875 -5.15625 C 4.191406 -5.71875 4.265625 -6.171875 4.265625 -6.515625 C 4.265625 -6.890625 4.175781 -7.171875 4 -7.359375 C 3.820312 -7.554688 3.578125 -7.65625 3.265625 -7.65625 C 2.847656 -7.65625 2.46875 -7.546875 2.125 -7.328125 C 1.78125 -7.117188 1.472656 -6.859375 1.203125 -6.546875 C 0.941406 -6.242188 0.671875 -5.882812 0.390625 -5.46875 L 0.15625 -5.109375 L 0.65625 -4.671875 L 0.84375 -4.953125 C 1.101562 -5.367188 1.316406 -5.691406 1.484375 -5.921875 C 1.660156 -6.148438 1.835938 -6.34375 2.015625 -6.5 C 2.203125 -6.65625 2.382812 -6.734375 2.5625 -6.734375 C 2.695312 -6.734375 2.789062 -6.679688 2.84375 -6.578125 C 2.90625 -6.484375 2.9375 -6.378906 2.9375 -6.265625 C 2.9375 -5.878906 2.832031 -5.316406 2.625 -4.578125 C 2.414062 -3.835938 2.132812 -2.9375 1.78125 -1.875 L 1.6875 -1.578125 C 1.570312 -1.242188 1.515625 -0.960938 1.515625 -0.734375 C 1.515625 -0.441406 1.585938 -0.21875 1.734375 -0.0625 C 1.878906 0.09375 2.066406 0.171875 2.296875 0.171875 C 2.429688 0.171875 2.566406 0.109375 2.703125 -0.015625 C 2.847656 -0.148438 2.972656 -0.296875 3.078125 -0.453125 C 3.140625 -0.535156 3.328125 -0.84375 3.640625 -1.375 C 4.234375 -2.351562 4.757812 -3.195312 5.21875 -3.90625 C 5.6875 -4.613281 6.171875 -5.25 6.671875 -5.8125 C 7.171875 -6.382812 7.59375 -6.671875 7.9375 -6.671875 C 8.082031 -6.671875 8.191406 -6.617188 8.265625 -6.515625 C 8.335938 -6.421875 8.375 -6.3125 8.375 -6.1875 C 8.375 -6.09375 8.335938 -5.925781 8.265625 -5.6875 C 8.191406 -5.445312 8.070312 -5.066406 7.90625 -4.546875 C 7.613281 -3.640625 7.378906 -2.875 7.203125 -2.25 C 7.035156 -1.625 6.953125 -1.117188 6.953125 -0.734375 C 6.953125 -0.421875 7.015625 -0.191406 7.140625 -0.046875 C 7.273438 0.0976562 7.441406 0.171875 7.640625 0.171875 C 7.847656 0.171875 8.019531 0.0976562 8.15625 -0.046875 C 8.289062 -0.191406 8.425781 -0.414062 8.5625 -0.71875 C 9.332031 -2.082031 10.160156 -3.410156 11.046875 -4.703125 C 11.941406 -6.003906 12.648438 -6.65625 13.171875 -6.65625 C 13.316406 -6.65625 13.425781 -6.601562 13.5 -6.5 C 13.570312 -6.40625 13.609375 -6.296875 13.609375 -6.171875 C 13.609375 -6.015625 13.566406 -5.816406 13.484375 -5.578125 C 13.398438 -5.335938 13.269531 -4.988281 13.09375 -4.53125 C 12.800781 -3.820312 12.578125 -3.207031 12.421875 -2.6875 C 12.265625 -2.164062 12.1875 -1.671875 12.1875 -1.203125 C 12.1875 -0.785156 12.289062 -0.445312 12.5 -0.1875 C 12.71875 0.0625 13.019531 0.1875 13.40625 0.1875 C 13.757812 0.1875 14.082031 0.101562 14.375 -0.0625 C 14.664062 -0.226562 14.941406 -0.460938 15.203125 -0.765625 C 15.472656 -1.066406 15.785156 -1.472656 16.140625 -1.984375 L 16.328125 -2.234375 C 16.171875 -2.378906 16.003906 -2.523438 15.828125 -2.671875 L 15.734375 -2.5 C 15.640625 -2.363281 15.578125 -2.265625 15.546875 -2.203125 C 15.285156 -1.847656 15.085938 -1.582031 14.953125 -1.40625 C 14.816406 -1.238281 14.671875 -1.097656 14.515625 -0.984375 C 14.359375 -0.867188 14.195312 -0.8125 14.03125 -0.8125 C 13.78125 -0.8125 13.65625 -1 13.65625 -1.375 C 13.65625 -1.664062 13.707031 -1.984375 13.8125 -2.328125 C 13.914062 -2.679688 14.082031 -3.140625 14.3125 -3.703125 C 14.550781 -4.335938 14.734375 -4.859375 14.859375 -5.265625 C 14.984375 -5.679688 15.046875 -6.078125 15.046875 -6.453125 C 15.046875 -6.828125 14.941406 -7.148438 14.734375 -7.421875 C 14.535156 -7.691406 14.21875 -7.828125 13.78125 -7.828125 C 13.238281 -7.828125 12.671875 -7.550781 12.078125 -7 C 11.492188 -6.445312 10.96875 -5.828125 10.5 -5.140625 C 10.03125 -4.460938 9.53125 -3.679688 9 -2.796875 C 8.832031 -2.503906 8.722656 -2.320312 8.671875 -2.25 Z M 8.515625 -2.328125 "/></g></g><g transform="translate(534.926819, 485.649372)"><g><path d="M 4.78125 -7.828125 C 4.050781 -7.828125 3.367188 -7.628906 2.734375 -7.234375 C 2.097656 -6.847656 1.585938 -6.320312 1.203125 -5.65625 C 0.816406 -5 0.625 -4.273438 0.625 -3.484375 C 0.625 -2.828125 0.769531 -2.21875 1.0625 -1.65625 C 1.363281 -1.09375 1.769531 -0.644531 2.28125 -0.3125 C 2.800781 0.0078125 3.359375 0.171875 3.953125 0.171875 C 4.617188 0.171875 5.253906 -0.0351562 5.859375 -0.453125 C 6.460938 -0.878906 7.003906 -1.421875 7.484375 -2.078125 L 6.859375 -2.484375 C 6.566406 -2.109375 6.296875 -1.796875 6.046875 -1.546875 C 5.796875 -1.304688 5.503906 -1.101562 5.171875 -0.9375 C 4.847656 -0.769531 4.488281 -0.6875 4.09375 -0.6875 C 3.738281 -0.6875 3.414062 -0.785156 3.125 -0.984375 C 2.832031 -1.179688 2.597656 -1.4375 2.421875 -1.75 C 2.253906 -2.0625 2.171875 -2.382812 2.171875 -2.71875 L 2.1875 -3.0625 C 2.945312 -3.113281 3.6875 -3.203125 4.40625 -3.328125 C 5.132812 -3.460938 5.789062 -3.710938 6.375 -4.078125 C 6.96875 -4.453125 7.265625 -4.972656 7.265625 -5.640625 C 7.265625 -6.109375 7.140625 -6.503906 6.890625 -6.828125 C 6.640625 -7.160156 6.320312 -7.410156 5.9375 -7.578125 C 5.5625 -7.742188 5.175781 -7.828125 4.78125 -7.828125 Z M 4.796875 -7.1875 C 5.003906 -7.1875 5.203125 -7.128906 5.390625 -7.015625 C 5.578125 -6.898438 5.726562 -6.738281 5.84375 -6.53125 C 5.96875 -6.332031 6.03125 -6.113281 6.03125 -5.875 C 6.03125 -5.40625 5.820312 -5.003906 5.40625 -4.671875 C 5 -4.347656 4.515625 -4.101562 3.953125 -3.9375 C 3.398438 -3.769531 2.925781 -3.6875 2.53125 -3.6875 C 2.476562 -3.6875 2.363281 -3.691406 2.1875 -3.703125 C 2.21875 -4.210938 2.335938 -4.738281 2.546875 -5.28125 C 2.765625 -5.820312 3.0625 -6.273438 3.4375 -6.640625 C 3.820312 -7.003906 4.273438 -7.1875 4.796875 -7.1875 Z M 4.796875 -7.1875 "/></g></g></g><g fill="#b621fe" fill-opacity="1"><g transform="translate(213.994078, 265.473709)"><g><path d="M 51.125 0 C 51.570312 -0.414062 51.796875 -1.03125 51.796875 -1.84375 C 51.796875 -2.070312 51.722656 -2.492188 51.578125 -3.109375 C 50.234375 -3.171875 49.132812 -3.269531 48.28125 -3.40625 C 47.425781 -3.550781 46.644531 -3.890625 45.9375 -4.421875 C 45.238281 -4.953125 44.890625 -5.75 44.890625 -6.8125 C 44.890625 -9.0625 45.519531 -12.890625 46.78125 -18.296875 C 48.050781 -23.710938 49.640625 -30 51.546875 -37.15625 L 53.3125 -44.046875 C 53.675781 -45.597656 54.191406 -46.800781 54.859375 -47.65625 C 55.535156 -48.507812 56.390625 -49.109375 57.421875 -49.453125 C 58.460938 -49.804688 59.800781 -49.984375 61.4375 -49.984375 L 62.3125 -52.34375 L 61.984375 -53.1875 L 40.0625 -53.1875 C 39.613281 -52.738281 39.390625 -52.109375 39.390625 -51.296875 C 39.390625 -51.117188 39.410156 -50.90625 39.453125 -50.65625 C 39.492188 -50.40625 39.523438 -50.195312 39.546875 -50.03125 C 40.867188 -49.96875 41.960938 -49.875 42.828125 -49.75 C 43.703125 -49.625 44.488281 -49.300781 45.1875 -48.78125 C 45.882812 -48.269531 46.234375 -47.46875 46.234375 -46.375 C 46.234375 -44.570312 46.046875 -42.785156 45.671875 -41.015625 C 45.296875 -39.253906 44.710938 -37.023438 43.921875 -34.328125 C 43.253906 -31.972656 42.78125 -30.222656 42.5 -29.078125 L 18.46875 -29.078125 L 21.875 -44.015625 C 22.40625 -46.253906 23.257812 -47.820312 24.4375 -48.71875 C 25.625 -49.625 27.378906 -50.078125 29.703125 -50.078125 C 30.265625 -50.890625 30.546875 -51.644531 30.546875 -52.34375 C 30.546875 -52.476562 30.503906 -52.632812 30.421875 -52.8125 C 30.335938 -53 30.28125 -53.125 30.25 -53.1875 L 8.671875 -53.1875 C 8.222656 -52.738281 8 -52.109375 8 -51.296875 C 8 -51.117188 8.019531 -50.910156 8.0625 -50.671875 C 8.101562 -50.441406 8.132812 -50.242188 8.15625 -50.078125 C 9.445312 -50.015625 10.535156 -49.921875 11.421875 -49.796875 C 12.304688 -49.671875 13.097656 -49.351562 13.796875 -48.84375 C 14.503906 -48.34375 14.859375 -47.5625 14.859375 -46.5 C 14.859375 -43.488281 14.320312 -39.648438 13.25 -34.984375 C 12.1875 -30.316406 10.703125 -24.546875 8.796875 -17.671875 C 8.546875 -16.773438 8.164062 -15.40625 7.65625 -13.5625 C 7.15625 -11.726562 6.765625 -10.238281 6.484375 -9.09375 C 5.921875 -6.84375 5.015625 -5.289062 3.765625 -4.4375 C 2.515625 -3.582031 0.710938 -3.15625 -1.640625 -3.15625 L -2.53125 -0.796875 L -2.234375 0 L 19.6875 0 C 20.132812 -0.445312 20.359375 -1.078125 20.359375 -1.890625 C 20.359375 -2.054688 20.335938 -2.265625 20.296875 -2.515625 C 20.253906 -2.773438 20.222656 -2.972656 20.203125 -3.109375 C 18.847656 -3.171875 17.734375 -3.273438 16.859375 -3.421875 C 15.992188 -3.578125 15.21875 -3.921875 14.53125 -4.453125 C 13.84375 -4.992188 13.5 -5.8125 13.5 -6.90625 C 13.5 -8.894531 13.738281 -10.925781 14.21875 -13 C 14.695312 -15.070312 15.398438 -17.640625 16.328125 -20.703125 C 17.171875 -23.535156 17.71875 -25.5 17.96875 -26.59375 L 41.984375 -26.59375 L 37.875 -9.125 C 37.332031 -6.882812 36.472656 -5.320312 35.296875 -4.4375 C 34.117188 -3.550781 32.367188 -3.109375 30.046875 -3.109375 L 29.203125 -0.796875 L 29.53125 0 Z M 51.125 0 "/></g></g></g><g fill="#b621fe" fill-opacity="1"><g transform="translate(268.944532, 265.473709)"><g><path d="M 22.890625 -37.484375 C 19.410156 -37.484375 16.140625 -36.550781 13.078125 -34.6875 C 10.023438 -32.820312 7.578125 -30.296875 5.734375 -27.109375 C 3.898438 -23.929688 2.984375 -20.460938 2.984375 -16.703125 C 2.984375 -13.535156 3.695312 -10.609375 5.125 -7.921875 C 6.5625 -5.242188 8.503906 -3.117188 10.953125 -1.546875 C 13.410156 0.015625 16.070312 0.796875 18.9375 0.796875 C 22.132812 0.796875 25.175781 -0.203125 28.0625 -2.203125 C 30.957031 -4.210938 33.539062 -6.800781 35.8125 -9.96875 L 32.859375 -11.859375 C 31.429688 -10.097656 30.128906 -8.628906 28.953125 -7.453125 C 27.773438 -6.273438 26.398438 -5.289062 24.828125 -4.5 C 23.253906 -3.71875 21.5 -3.328125 19.5625 -3.328125 C 17.882812 -3.328125 16.34375 -3.796875 14.9375 -4.734375 C 13.53125 -5.671875 12.421875 -6.890625 11.609375 -8.390625 C 10.796875 -9.890625 10.390625 -11.441406 10.390625 -13.046875 L 10.4375 -14.640625 C 14.113281 -14.890625 17.675781 -15.332031 21.125 -15.96875 C 24.570312 -16.601562 27.703125 -17.800781 30.515625 -19.5625 C 33.335938 -21.332031 34.75 -23.800781 34.75 -26.96875 C 34.75 -29.21875 34.148438 -31.132812 32.953125 -32.71875 C 31.765625 -34.300781 30.257812 -35.488281 28.4375 -36.28125 C 26.613281 -37.082031 24.765625 -37.484375 22.890625 -37.484375 Z M 22.9375 -34.421875 C 23.945312 -34.421875 24.90625 -34.144531 25.8125 -33.59375 C 26.726562 -33.050781 27.460938 -32.296875 28.015625 -31.328125 C 28.578125 -30.359375 28.859375 -29.285156 28.859375 -28.109375 C 28.859375 -25.890625 27.867188 -23.992188 25.890625 -22.421875 C 23.921875 -20.847656 21.609375 -19.660156 18.953125 -18.859375 C 16.304688 -18.066406 14.03125 -17.671875 12.125 -17.671875 C 11.863281 -17.671875 11.316406 -17.695312 10.484375 -17.75 C 10.617188 -20.195312 11.195312 -22.707031 12.21875 -25.28125 C 13.25 -27.863281 14.675781 -30.03125 16.5 -31.78125 C 18.320312 -33.539062 20.46875 -34.421875 22.9375 -34.421875 Z M 22.9375 -34.421875 "/></g></g></g><g fill="#b621fe" fill-opacity="1"><g transform="translate(305.550636, 265.473709)"><g><path d="M 4.96875 -14.3125 C 4.457031 -12.65625 4.082031 -11.285156 3.84375 -10.203125 C 3.613281 -9.117188 3.507812 -8.046875 3.53125 -6.984375 C 3.53125 -4.765625 4.097656 -2.910156 5.234375 -1.421875 C 6.367188 0.0546875 7.9375 0.796875 9.9375 0.796875 C 12.257812 0.796875 14.335938 0.0976562 16.171875 -1.296875 C 18.015625 -2.703125 19.707031 -4.53125 21.25 -6.78125 L 23.8125 -10.515625 L 21.078125 -12.40625 L 18.6875 -8.796875 C 16.46875 -5.484375 14.515625 -3.828125 12.828125 -3.828125 C 12.078125 -3.828125 11.507812 -4.140625 11.125 -4.765625 C 10.75 -5.398438 10.5625 -6.179688 10.5625 -7.109375 C 10.5625 -8.035156 10.769531 -9.269531 11.1875 -10.8125 L 22.125 -51.625 C 22.15625 -51.789062 22.269531 -52.285156 22.46875 -53.109375 C 22.664062 -53.941406 22.765625 -54.582031 22.765625 -55.03125 C 22.765625 -55.5625 22.644531 -55.941406 22.40625 -56.171875 C 22.164062 -56.398438 21.804688 -56.515625 21.328125 -56.515625 C 21.160156 -56.515625 20.878906 -56.484375 20.484375 -56.421875 L 18.140625 -56.125 C 15.160156 -55.757812 13 -55.472656 11.65625 -55.265625 C 10.3125 -55.054688 9.257812 -54.789062 8.5 -54.46875 C 7.738281 -54.144531 7.359375 -53.71875 7.359375 -53.1875 C 7.359375 -52.457031 7.695312 -52.035156 8.375 -51.921875 L 15.140625 -51.5 L 5.46875 -16.078125 Z M 4.96875 -14.3125 "/></g></g></g><g fill="#b621fe" fill-opacity="1"><g transform="translate(328.440545, 265.473709)"><g><path d="M 4.96875 -14.3125 C 4.457031 -12.65625 4.082031 -11.285156 3.84375 -10.203125 C 3.613281 -9.117188 3.507812 -8.046875 3.53125 -6.984375 C 3.53125 -4.765625 4.097656 -2.910156 5.234375 -1.421875 C 6.367188 0.0546875 7.9375 0.796875 9.9375 0.796875 C 12.257812 0.796875 14.335938 0.0976562 16.171875 -1.296875 C 18.015625 -2.703125 19.707031 -4.53125 21.25 -6.78125 L 23.8125 -10.515625 L 21.078125 -12.40625 L 18.6875 -8.796875 C 16.46875 -5.484375 14.515625 -3.828125 12.828125 -3.828125 C 12.078125 -3.828125 11.507812 -4.140625 11.125 -4.765625 C 10.75 -5.398438 10.5625 -6.179688 10.5625 -7.109375 C 10.5625 -8.035156 10.769531 -9.269531 11.1875 -10.8125 L 22.125 -51.625 C 22.15625 -51.789062 22.269531 -52.285156 22.46875 -53.109375 C 22.664062 -53.941406 22.765625 -54.582031 22.765625 -55.03125 C 22.765625 -55.5625 22.644531 -55.941406 22.40625 -56.171875 C 22.164062 -56.398438 21.804688 -56.515625 21.328125 -56.515625 C 21.160156 -56.515625 20.878906 -56.484375 20.484375 -56.421875 L 18.140625 -56.125 C 15.160156 -55.757812 13 -55.472656 11.65625 -55.265625 C 10.3125 -55.054688 9.257812 -54.789062 8.5 -54.46875 C 7.738281 -54.144531 7.359375 -53.71875 7.359375 -53.1875 C 7.359375 -52.457031 7.695312 -52.035156 8.375 -51.921875 L 15.140625 -51.5 L 5.46875 -16.078125 Z M 4.96875 -14.3125 "/></g></g></g><g fill="#b621fe" fill-opacity="1"><g transform="translate(351.330454, 265.473709)"><g><path d="M 38.296875 -21.453125 C 38.296875 -24.992188 37.5625 -27.96875 36.09375 -30.375 C 34.632812 -32.789062 32.738281 -34.578125 30.40625 -35.734375 C 28.082031 -36.898438 25.601562 -37.484375 22.96875 -37.484375 C 19.632812 -37.484375 16.429688 -36.578125 13.359375 -34.765625 C 10.285156 -32.960938 7.785156 -30.382812 5.859375 -27.03125 C 3.941406 -23.675781 2.984375 -19.8125 2.984375 -15.4375 C 2.984375 -11.875 3.707031 -8.875 5.15625 -6.4375 C 6.601562 -4 8.503906 -2.179688 10.859375 -0.984375 C 13.210938 0.203125 15.734375 0.796875 18.421875 0.796875 C 22.242188 0.796875 25.664062 -0.242188 28.6875 -2.328125 C 31.71875 -4.421875 34.078125 -7.171875 35.765625 -10.578125 C 37.453125 -13.984375 38.296875 -17.609375 38.296875 -21.453125 Z M 18.09375 -3.203125 C 16.601562 -3.203125 15.25 -3.640625 14.03125 -4.515625 C 12.8125 -5.398438 11.84375 -6.738281 11.125 -8.53125 C 10.414062 -10.332031 10.0625 -12.550781 10.0625 -15.1875 C 10.0625 -18.8125 10.738281 -22.007812 12.09375 -24.78125 C 13.457031 -27.5625 15.191406 -29.703125 17.296875 -31.203125 C 19.398438 -32.703125 21.488281 -33.453125 23.5625 -33.453125 C 25.71875 -33.453125 27.5 -32.503906 28.90625 -30.609375 C 30.3125 -28.710938 31.015625 -25.882812 31.015625 -22.125 C 31.015625 -18.03125 30.375 -14.550781 29.09375 -11.6875 C 27.820312 -8.832031 26.1875 -6.703125 24.1875 -5.296875 C 22.195312 -3.898438 20.164062 -3.203125 18.09375 -3.203125 Z M 18.09375 -3.203125 "/></g></g></g><g fill="#b621fe" fill-opacity="1"><g transform="translate(390.713449, 265.473709)"><g><path d="M 7.609375 8.203125 C 9.347656 7.222656 10.992188 6.023438 12.546875 4.609375 C 14.109375 3.191406 15.378906 1.628906 16.359375 -0.078125 C 17.347656 -1.796875 17.84375 -3.507812 17.84375 -5.21875 C 17.84375 -6.625 17.582031 -7.878906 17.0625 -8.984375 C 16.539062 -10.085938 15.816406 -10.945312 14.890625 -11.5625 C 13.960938 -12.1875 12.925781 -12.5 11.78125 -12.5 C 10.519531 -12.5 9.460938 -12.125 8.609375 -11.375 C 7.753906 -10.632812 7.328125 -9.773438 7.328125 -8.796875 C 7.328125 -8.398438 7.410156 -7.957031 7.578125 -7.46875 C 7.742188 -6.976562 8.035156 -6.242188 8.453125 -5.265625 C 8.847656 -4.359375 9.128906 -3.648438 9.296875 -3.140625 C 9.460938 -2.640625 9.546875 -2.207031 9.546875 -1.84375 C 9.546875 -1.03125 9.40625 -0.347656 9.125 0.203125 C 8.84375 0.765625 8.457031 1.242188 7.96875 1.640625 C 7.476562 2.035156 6.769531 2.539062 5.84375 3.15625 L 4.25 4.25 L 3.359375 4.875 L 6.359375 8.921875 Z M 7.609375 8.203125 "/></g></g></g><g fill="#b621fe" fill-opacity="1"><g transform="translate(413.813735, 265.473709)"><g/></g></g><g fill="#b621fe" fill-opacity="1"><g transform="translate(431.060463, 265.473709)"><g><path d="M 21.421875 -10.9375 C 21.421875 -8.800781 21.609375 -7.226562 21.984375 -6.21875 C 22.359375 -5.21875 22.875 -4.546875 23.53125 -4.203125 C 24.195312 -3.867188 25.242188 -3.578125 26.671875 -3.328125 C 28.328125 -3.046875 29.800781 -2.679688 31.09375 -2.234375 L 31.015625 0 L 3.03125 0 L 3.03125 -2.1875 C 3.84375 -2.550781 4.578125 -2.8125 5.234375 -2.96875 C 5.898438 -3.125 6.734375 -3.285156 7.734375 -3.453125 C 9.003906 -3.617188 9.929688 -3.863281 10.515625 -4.1875 C 11.109375 -4.507812 11.566406 -5.226562 11.890625 -6.34375 C 12.210938 -7.46875 12.375 -9.253906 12.375 -11.703125 L 12.375 -43.34375 C 12.375 -45.632812 12.175781 -47.328125 11.78125 -48.421875 C 11.382812 -49.523438 10.867188 -50.226562 10.234375 -50.53125 C 9.609375 -50.84375 8.679688 -51.082031 7.453125 -51.25 C 6.441406 -51.414062 5.601562 -51.582031 4.9375 -51.75 C 4.28125 -51.914062 3.585938 -52.210938 2.859375 -52.640625 L 2.953125 -54.78125 L 30.84375 -54.78125 L 30.921875 -52.59375 C 30.335938 -52.375 29.5 -52.132812 28.40625 -51.875 C 26.863281 -51.488281 25.628906 -51.097656 24.703125 -50.703125 C 23.773438 -50.304688 22.992188 -49.691406 22.359375 -48.859375 C 21.734375 -48.035156 21.421875 -46.910156 21.421875 -45.484375 Z M 21.421875 -10.9375 "/></g></g></g><g fill="#b621fe" fill-opacity="1"><g transform="translate(463.290846, 265.473709)"><g/></g></g><g fill="#b621fe" fill-opacity="1"><g transform="translate(481.762962, 265.473709)"><g><path d="M 26.515625 -25.625 C 26.515625 -27.726562 26.320312 -29.507812 25.9375 -30.96875 C 25.5625 -32.425781 24.804688 -33.601562 23.671875 -34.5 C 22.535156 -35.394531 20.914062 -35.84375 18.8125 -35.84375 C 18.082031 -35.84375 17.179688 -35.6875 16.109375 -35.375 C 15.046875 -35.070312 14.113281 -34.632812 13.3125 -34.0625 C 12.519531 -33.488281 12.125 -32.820312 12.125 -32.0625 C 12.125 -31.75 12.175781 -31.445312 12.28125 -31.15625 C 12.394531 -30.863281 12.578125 -30.492188 12.828125 -30.046875 C 13.085938 -29.617188 13.269531 -29.25 13.375 -28.9375 C 13.488281 -28.632812 13.546875 -28.316406 13.546875 -27.984375 C 13.546875 -26.859375 13.1875 -25.921875 12.46875 -25.171875 C 11.757812 -24.429688 10.84375 -24.0625 9.71875 -24.0625 C 8.3125 -24.0625 7.195312 -24.582031 6.375 -25.625 C 5.550781 -26.664062 5.140625 -27.914062 5.140625 -29.375 C 5.140625 -31.5625 5.992188 -33.367188 7.703125 -34.796875 C 9.410156 -36.222656 11.476562 -37.273438 13.90625 -37.953125 C 16.332031 -38.628906 18.597656 -38.96875 20.703125 -38.96875 C 24.660156 -38.96875 27.613281 -38.382812 29.5625 -37.21875 C 31.507812 -36.050781 32.796875 -34.351562 33.421875 -32.125 C 34.054688 -29.894531 34.375 -26.773438 34.375 -22.765625 L 34.296875 -20.65625 C 34.265625 -20.039062 34.226562 -19.015625 34.1875 -17.578125 C 34.144531 -16.148438 34.125 -14.832031 34.125 -13.625 C 34.125 -7.320312 34.78125 -4.171875 36.09375 -4.171875 C 37.050781 -4.171875 38.285156 -5.132812 39.796875 -7.0625 L 41.578125 -5.171875 C 40.335938 -3.148438 39.113281 -1.640625 37.90625 -0.640625 C 36.695312 0.347656 35.113281 0.84375 33.15625 0.84375 C 31.300781 0.84375 29.773438 0.257812 28.578125 -0.90625 C 27.390625 -2.070312 26.742188 -3.578125 26.640625 -5.421875 C 24.835938 -3.460938 22.820312 -1.925781 20.59375 -0.8125 C 18.363281 0.289062 16 0.84375 13.5 0.84375 C 11.757812 0.84375 10.15625 0.53125 8.6875 -0.09375 C 7.21875 -0.726562 6.039062 -1.675781 5.15625 -2.9375 C 4.269531 -4.207031 3.828125 -5.722656 3.828125 -7.484375 C 3.828125 -10.148438 4.847656 -12.363281 6.890625 -14.125 C 8.941406 -15.894531 11.300781 -17.242188 13.96875 -18.171875 C 16.632812 -19.097656 19.890625 -20.023438 23.734375 -20.953125 C 24.066406 -21.003906 24.992188 -21.226562 26.515625 -21.625 Z M 26.515625 -19.140625 C 26.085938 -19.003906 25.550781 -18.835938 24.90625 -18.640625 C 22.5 -17.859375 20.4375 -17.109375 18.71875 -16.390625 C 17.007812 -15.671875 15.484375 -14.707031 14.140625 -13.5 C 12.796875 -12.300781 12.125 -10.882812 12.125 -9.25 C 12.125 -7.601562 12.578125 -6.300781 13.484375 -5.34375 C 14.398438 -4.382812 15.679688 -3.90625 17.328125 -3.90625 C 18.984375 -3.90625 20.582031 -4.316406 22.125 -5.140625 C 23.675781 -5.972656 25.140625 -7.066406 26.515625 -8.421875 Z M 26.515625 -19.140625 "/></g></g></g><g fill="#b621fe" fill-opacity="1"><g transform="translate(522.660633, 265.473709)"><g><path d="M 16.453125 -9.890625 C 16.453125 -7.753906 16.785156 -6.160156 17.453125 -5.109375 C 18.128906 -4.054688 18.898438 -3.375 19.765625 -3.0625 C 20.640625 -2.757812 22.003906 -2.441406 23.859375 -2.109375 C 23.859375 -1.679688 23.84375 -1.253906 23.8125 -0.828125 C 23.78125 -0.410156 23.765625 -0.132812 23.765625 0 L 2.0625 0 L 2.0625 -2.234375 C 2.113281 -2.253906 2.503906 -2.363281 3.234375 -2.5625 C 4.640625 -2.90625 5.789062 -3.304688 6.6875 -3.765625 C 7.582031 -4.222656 8.128906 -4.929688 8.328125 -5.890625 C 8.472656 -6.367188 8.554688 -6.851562 8.578125 -7.34375 C 8.609375 -7.832031 8.625 -8.5 8.625 -9.34375 L 8.625 -30.546875 C 8.289062 -31.222656 7.625 -31.816406 6.625 -32.328125 C 5.632812 -32.847656 4.601562 -33.285156 3.53125 -33.640625 C 2.46875 -33.992188 1.9375 -34.15625 1.9375 -34.125 L 2.0625 -35.546875 L 13.625 -38.421875 L 16.109375 -38.578125 L 16.578125 -31.71875 C 18.234375 -33.882812 20.179688 -35.632812 22.421875 -36.96875 C 24.671875 -38.300781 27.179688 -38.96875 29.953125 -38.96875 C 32.703125 -38.96875 34.972656 -38.40625 36.765625 -37.28125 C 38.566406 -36.15625 39.941406 -34.457031 40.890625 -32.1875 C 42.242188 -33.675781 43.519531 -34.890625 44.71875 -35.828125 C 45.925781 -36.765625 47.273438 -37.503906 48.765625 -38.046875 C 50.253906 -38.597656 51.9375 -38.875 53.8125 -38.875 C 57.488281 -38.875 60.441406 -38.007812 62.671875 -36.28125 C 64.898438 -34.5625 66.171875 -31.945312 66.484375 -28.4375 C 66.703125 -25.800781 66.8125 -23.148438 66.8125 -20.484375 L 66.8125 -9.46875 C 66.8125 -8.0625 66.910156 -6.867188 67.109375 -5.890625 C 67.253906 -5.078125 67.613281 -4.429688 68.1875 -3.953125 C 68.757812 -3.472656 69.328125 -3.140625 69.890625 -2.953125 C 70.453125 -2.773438 71.429688 -2.492188 72.828125 -2.109375 C 72.828125 -1.679688 72.8125 -1.265625 72.78125 -0.859375 C 72.757812 -0.453125 72.75 -0.164062 72.75 0 L 52.515625 0 C 52.515625 -0.164062 52.5 -0.453125 52.46875 -0.859375 C 52.4375 -1.265625 52.421875 -1.679688 52.421875 -2.109375 C 52.566406 -2.128906 52.726562 -2.164062 52.90625 -2.21875 C 53.09375 -2.28125 53.285156 -2.335938 53.484375 -2.390625 C 54.941406 -2.785156 56.101562 -3.210938 56.96875 -3.671875 C 57.84375 -4.140625 58.390625 -4.851562 58.609375 -5.8125 C 58.835938 -6.925781 58.953125 -8.144531 58.953125 -9.46875 L 58.953125 -26.171875 C 58.953125 -28.804688 58.273438 -30.84375 56.921875 -32.28125 C 55.578125 -33.726562 53.660156 -34.453125 51.171875 -34.453125 C 49.429688 -34.453125 47.703125 -33.941406 45.984375 -32.921875 C 44.273438 -31.898438 42.757812 -30.660156 41.4375 -29.203125 C 41.613281 -27.265625 41.703125 -24.148438 41.703125 -19.859375 L 41.703125 -9.671875 C 41.703125 -8.078125 41.785156 -6.84375 41.953125 -5.96875 C 42.117188 -4.957031 42.644531 -4.210938 43.53125 -3.734375 C 44.414062 -3.265625 45.585938 -2.832031 47.046875 -2.4375 C 47.828125 -2.1875 48.203125 -2.078125 48.171875 -2.109375 C 48.171875 -1.679688 48.15625 -1.253906 48.125 -0.828125 C 48.101562 -0.410156 48.09375 -0.132812 48.09375 0 L 27.0625 0 C 27.0625 -0.164062 27.046875 -0.453125 27.015625 -0.859375 C 26.984375 -1.265625 26.96875 -1.679688 26.96875 -2.109375 C 27.082031 -2.128906 27.765625 -2.257812 29.015625 -2.5 C 30.265625 -2.738281 31.378906 -3.484375 32.359375 -4.734375 C 33.335938 -5.984375 33.828125 -7.617188 33.828125 -9.640625 L 33.828125 -24.28125 C 33.828125 -27.5625 33.304688 -30.070312 32.265625 -31.8125 C 31.234375 -33.550781 29.425781 -34.421875 26.84375 -34.421875 C 24.820312 -34.421875 22.988281 -33.894531 21.34375 -32.84375 C 19.707031 -31.789062 18.078125 -30.351562 16.453125 -28.53125 Z M 16.453125 -9.890625 "/></g></g></g><g fill="#b621fe" fill-opacity="1"><g transform="translate(594.861515, 265.473709)"><g/></g></g><g fill="#b621fe" fill-opacity="1"><g transform="translate(613.333627, 265.473709)"><g><path d="M 12.578125 -43.5 C 12.578125 -45.78125 12.394531 -47.445312 12.03125 -48.5 C 11.664062 -49.550781 11.132812 -50.257812 10.4375 -50.625 C 9.738281 -50.988281 8.601562 -51.320312 7.03125 -51.625 C 5.125 -52.050781 3.75 -52.390625 2.90625 -52.640625 L 2.984375 -54.78125 L 31.4375 -54.78125 L 31.4375 -52.59375 C 30.613281 -52.257812 29.878906 -52.015625 29.234375 -51.859375 C 28.597656 -51.703125 27.742188 -51.523438 26.671875 -51.328125 C 25.328125 -51.109375 24.332031 -50.835938 23.6875 -50.515625 C 23.039062 -50.191406 22.539062 -49.523438 22.1875 -48.515625 C 21.84375 -47.503906 21.671875 -45.921875 21.671875 -43.765625 L 21.671875 -13.125 C 21.671875 -9.726562 22 -7.378906 22.65625 -6.078125 C 23.3125 -4.773438 24.550781 -3.953125 26.375 -3.609375 C 28.195312 -3.273438 31.535156 -3.109375 36.390625 -3.109375 C 39.484375 -3.109375 42.085938 -3.507812 44.203125 -4.3125 C 46.316406 -5.113281 48.003906 -6.71875 49.265625 -9.125 L 49.90625 -10.390625 C 50.351562 -11.316406 50.757812 -12.09375 51.125 -12.71875 C 51.488281 -13.351562 51.910156 -13.9375 52.390625 -14.46875 L 54.90625 -14.390625 L 52.265625 0.46875 C 48.503906 0.15625 45.429688 0 43.046875 0 L 2.953125 0 L 2.859375 -2.265625 C 3.285156 -2.410156 4.179688 -2.679688 5.546875 -3.078125 C 7.148438 -3.492188 8.414062 -3.90625 9.34375 -4.3125 C 10.269531 -4.71875 11.039062 -5.375 11.65625 -6.28125 C 12.269531 -7.195312 12.578125 -8.46875 12.578125 -10.09375 Z M 12.578125 -43.5 "/></g></g></g><g fill="#b621fe" fill-opacity="1"><g transform="translate(666.138285, 265.473709)"><g><path d="M 12.328125 -57.890625 C 13.671875 -57.890625 14.816406 -57.410156 15.765625 -56.453125 C 16.722656 -55.503906 17.203125 -54.359375 17.203125 -53.015625 C 17.203125 -51.640625 16.722656 -50.484375 15.765625 -49.546875 C 14.816406 -48.609375 13.671875 -48.140625 12.328125 -48.140625 C 10.953125 -48.140625 9.796875 -48.609375 8.859375 -49.546875 C 7.921875 -50.484375 7.453125 -51.640625 7.453125 -53.015625 C 7.453125 -54.359375 7.921875 -55.503906 8.859375 -56.453125 C 9.796875 -57.410156 10.953125 -57.890625 12.328125 -57.890625 Z M 8.96875 -30.59375 C 8.601562 -31.238281 7.921875 -31.816406 6.921875 -32.328125 C 5.921875 -32.847656 4.894531 -33.285156 3.84375 -33.640625 C 2.789062 -33.992188 2.265625 -34.15625 2.265625 -34.125 L 2.359375 -35.59375 L 14.171875 -38.453125 L 16.78125 -38.625 L 16.78125 -9.25 C 16.78125 -8.269531 16.882812 -7.34375 17.09375 -6.46875 C 17.3125 -5.601562 17.957031 -4.722656 19.03125 -3.828125 C 20.113281 -2.929688 21.820312 -2.359375 24.15625 -2.109375 C 24.15625 -1.179688 24.140625 -0.476562 24.109375 0 L 2.140625 0 C 2.085938 -0.5 2.0625 -1.203125 2.0625 -2.109375 L 3.234375 -2.4375 C 4.472656 -2.78125 5.46875 -3.117188 6.21875 -3.453125 C 6.976562 -3.785156 7.625 -4.28125 8.15625 -4.9375 C 8.695312 -5.601562 8.96875 -6.492188 8.96875 -7.609375 Z M 8.96875 -30.59375 "/></g></g></g><g fill="#b621fe" fill-opacity="1"><g transform="translate(689.406867, 265.473709)"><g><path d="M 29.078125 -26.546875 C 28.679688 -26.523438 28.019531 -26.515625 27.09375 -26.515625 C 26.28125 -29.335938 25.050781 -31.644531 23.40625 -33.4375 C 21.769531 -35.238281 19.675781 -36.140625 17.125 -36.140625 C 15.351562 -36.140625 13.957031 -35.703125 12.9375 -34.828125 C 11.914062 -33.960938 11.40625 -32.703125 11.40625 -31.046875 C 11.40625 -29.898438 11.820312 -28.832031 12.65625 -27.84375 C 13.5 -26.863281 14.53125 -26.003906 15.75 -25.265625 C 16.976562 -24.523438 18.585938 -23.648438 20.578125 -22.640625 C 21.054688 -22.410156 21.769531 -22.046875 22.71875 -21.546875 C 25.863281 -19.859375 28.15625 -18.140625 29.59375 -16.390625 C 31.039062 -14.640625 31.765625 -12.5 31.765625 -9.96875 C 31.765625 -7.644531 31.1875 -5.675781 30.03125 -4.0625 C 28.882812 -2.445312 27.300781 -1.222656 25.28125 -0.390625 C 23.269531 0.429688 20.957031 0.84375 18.34375 0.84375 C 16.039062 0.84375 13.710938 0.566406 11.359375 0.015625 C 9.003906 -0.523438 7.066406 -1.257812 5.546875 -2.1875 L 5.546875 -12.453125 C 6.640625 -12.597656 7.382812 -12.671875 7.78125 -12.671875 C 8.425781 -9.554688 9.566406 -7.015625 11.203125 -5.046875 C 12.847656 -3.085938 15.101562 -2.109375 17.96875 -2.109375 C 20.007812 -2.109375 21.710938 -2.617188 23.078125 -3.640625 C 24.441406 -4.660156 25.125 -6.015625 25.125 -7.703125 C 25.125 -8.765625 24.8125 -9.703125 24.1875 -10.515625 C 23.570312 -11.328125 22.773438 -12.039062 21.796875 -12.65625 C 20.816406 -13.28125 19.34375 -14.109375 17.375 -15.140625 C 14.738281 -16.546875 12.734375 -17.6875 11.359375 -18.5625 C 9.222656 -19.875 7.613281 -21.34375 6.53125 -22.96875 C 5.457031 -24.59375 4.921875 -26.53125 4.921875 -28.78125 C 4.921875 -30.9375 5.46875 -32.78125 6.5625 -34.3125 C 7.65625 -35.84375 9.140625 -37 11.015625 -37.78125 C 12.898438 -38.570312 15.019531 -38.96875 17.375 -38.96875 C 19.539062 -38.96875 21.597656 -38.695312 23.546875 -38.15625 C 25.492188 -37.625 27.253906 -36.867188 28.828125 -35.890625 Z M 29.078125 -26.546875 "/></g></g></g><g fill="#b621fe" fill-opacity="1"><g transform="translate(723.614741, 265.473709)"><g><path d="M 26.515625 -25.625 C 26.515625 -27.726562 26.320312 -29.507812 25.9375 -30.96875 C 25.5625 -32.425781 24.804688 -33.601562 23.671875 -34.5 C 22.535156 -35.394531 20.914062 -35.84375 18.8125 -35.84375 C 18.082031 -35.84375 17.179688 -35.6875 16.109375 -35.375 C 15.046875 -35.070312 14.113281 -34.632812 13.3125 -34.0625 C 12.519531 -33.488281 12.125 -32.820312 12.125 -32.0625 C 12.125 -31.75 12.175781 -31.445312 12.28125 -31.15625 C 12.394531 -30.863281 12.578125 -30.492188 12.828125 -30.046875 C 13.085938 -29.617188 13.269531 -29.25 13.375 -28.9375 C 13.488281 -28.632812 13.546875 -28.316406 13.546875 -27.984375 C 13.546875 -26.859375 13.1875 -25.921875 12.46875 -25.171875 C 11.757812 -24.429688 10.84375 -24.0625 9.71875 -24.0625 C 8.3125 -24.0625 7.195312 -24.582031 6.375 -25.625 C 5.550781 -26.664062 5.140625 -27.914062 5.140625 -29.375 C 5.140625 -31.5625 5.992188 -33.367188 7.703125 -34.796875 C 9.410156 -36.222656 11.476562 -37.273438 13.90625 -37.953125 C 16.332031 -38.628906 18.597656 -38.96875 20.703125 -38.96875 C 24.660156 -38.96875 27.613281 -38.382812 29.5625 -37.21875 C 31.507812 -36.050781 32.796875 -34.351562 33.421875 -32.125 C 34.054688 -29.894531 34.375 -26.773438 34.375 -22.765625 L 34.296875 -20.65625 C 34.265625 -20.039062 34.226562 -19.015625 34.1875 -17.578125 C 34.144531 -16.148438 34.125 -14.832031 34.125 -13.625 C 34.125 -7.320312 34.78125 -4.171875 36.09375 -4.171875 C 37.050781 -4.171875 38.285156 -5.132812 39.796875 -7.0625 L 41.578125 -5.171875 C 40.335938 -3.148438 39.113281 -1.640625 37.90625 -0.640625 C 36.695312 0.347656 35.113281 0.84375 33.15625 0.84375 C 31.300781 0.84375 29.773438 0.257812 28.578125 -0.90625 C 27.390625 -2.070312 26.742188 -3.578125 26.640625 -5.421875 C 24.835938 -3.460938 22.820312 -1.925781 20.59375 -0.8125 C 18.363281 0.289062 16 0.84375 13.5 0.84375 C 11.757812 0.84375 10.15625 0.53125 8.6875 -0.09375 C 7.21875 -0.726562 6.039062 -1.675781 5.15625 -2.9375 C 4.269531 -4.207031 3.828125 -5.722656 3.828125 -7.484375 C 3.828125 -10.148438 4.847656 -12.363281 6.890625 -14.125 C 8.941406 -15.894531 11.300781 -17.242188 13.96875 -18.171875 C 16.632812 -19.097656 19.890625 -20.023438 23.734375 -20.953125 C 24.066406 -21.003906 24.992188 -21.226562 26.515625 -21.625 Z M 26.515625 -19.140625 C 26.085938 -19.003906 25.550781 -18.835938 24.90625 -18.640625 C 22.5 -17.859375 20.4375 -17.109375 18.71875 -16.390625 C 17.007812 -15.671875 15.484375 -14.707031 14.140625 -13.5 C 12.796875 -12.300781 12.125 -10.882812 12.125 -9.25 C 12.125 -7.601562 12.578125 -6.300781 13.484375 -5.34375 C 14.398438 -4.382812 15.679688 -3.90625 17.328125 -3.90625 C 18.984375 -3.90625 20.582031 -4.316406 22.125 -5.140625 C 23.675781 -5.972656 25.140625 -7.066406 26.515625 -8.421875 Z M 26.515625 -19.140625 "/></g></g></g><g fill="#b621fe" fill-opacity="1"><g transform="translate(764.512419, 265.473709)"><g><path d="M 17.203125 -50.453125 C 17.203125 -47.816406 16.9375 -44.457031 16.40625 -40.375 C 15.875 -36.289062 15.101562 -30.984375 14.09375 -24.453125 L 13.34375 -19.609375 C 13.3125 -19.410156 13.257812 -18.90625 13.1875 -18.09375 C 13.113281 -17.28125 12.972656 -16.554688 12.765625 -15.921875 C 12.554688 -15.296875 12.269531 -14.984375 11.90625 -14.984375 C 11.40625 -14.984375 11.0625 -15.289062 10.875 -15.90625 C 10.695312 -16.519531 10.585938 -17.128906 10.546875 -17.734375 C 10.503906 -18.335938 10.46875 -18.738281 10.4375 -18.9375 C 10.289062 -20.144531 10.070312 -21.707031 9.78125 -23.625 C 9.488281 -25.550781 9.269531 -26.929688 9.125 -27.765625 C 8.257812 -33.410156 7.59375 -37.988281 7.125 -41.5 C 6.664062 -45.019531 6.4375 -48.03125 6.4375 -50.53125 C 6.4375 -52.1875 6.890625 -53.378906 7.796875 -54.109375 C 8.710938 -54.835938 10.023438 -55.203125 11.734375 -55.203125 C 13.359375 -55.203125 14.675781 -54.804688 15.6875 -54.015625 C 16.695312 -53.234375 17.203125 -52.046875 17.203125 -50.453125 Z M 11.90625 -9.09375 C 12.832031 -9.09375 13.691406 -8.851562 14.484375 -8.375 C 15.285156 -7.894531 15.925781 -7.253906 16.40625 -6.453125 C 16.882812 -5.660156 17.125 -4.800781 17.125 -3.875 C 17.125 -2.4375 16.609375 -1.226562 15.578125 -0.25 C 14.554688 0.726562 13.332031 1.21875 11.90625 1.21875 C 10.5 1.21875 9.296875 0.722656 8.296875 -0.265625 C 7.304688 -1.265625 6.8125 -2.46875 6.8125 -3.875 C 6.8125 -5.300781 7.300781 -6.523438 8.28125 -7.546875 C 9.269531 -8.578125 10.476562 -9.09375 11.90625 -9.09375 Z M 11.90625 -9.09375 "/></g></g></g><g fill="#b621fe" fill-opacity="1"><g transform="translate(786.644992, 265.473709)"><g><path d="M 17.203125 -50.453125 C 17.203125 -47.816406 16.9375 -44.457031 16.40625 -40.375 C 15.875 -36.289062 15.101562 -30.984375 14.09375 -24.453125 L 13.34375 -19.609375 C 13.3125 -19.410156 13.257812 -18.90625 13.1875 -18.09375 C 13.113281 -17.28125 12.972656 -16.554688 12.765625 -15.921875 C 12.554688 -15.296875 12.269531 -14.984375 11.90625 -14.984375 C 11.40625 -14.984375 11.0625 -15.289062 10.875 -15.90625 C 10.695312 -16.519531 10.585938 -17.128906 10.546875 -17.734375 C 10.503906 -18.335938 10.46875 -18.738281 10.4375 -18.9375 C 10.289062 -20.144531 10.070312 -21.707031 9.78125 -23.625 C 9.488281 -25.550781 9.269531 -26.929688 9.125 -27.765625 C 8.257812 -33.410156 7.59375 -37.988281 7.125 -41.5 C 6.664062 -45.019531 6.4375 -48.03125 6.4375 -50.53125 C 6.4375 -52.1875 6.890625 -53.378906 7.796875 -54.109375 C 8.710938 -54.835938 10.023438 -55.203125 11.734375 -55.203125 C 13.359375 -55.203125 14.675781 -54.804688 15.6875 -54.015625 C 16.695312 -53.234375 17.203125 -52.046875 17.203125 -50.453125 Z M 11.90625 -9.09375 C 12.832031 -9.09375 13.691406 -8.851562 14.484375 -8.375 C 15.285156 -7.894531 15.925781 -7.253906 16.40625 -6.453125 C 16.882812 -5.660156 17.125 -4.800781 17.125 -3.875 C 17.125 -2.4375 16.609375 -1.226562 15.578125 -0.25 C 14.554688 0.726562 13.332031 1.21875 11.90625 1.21875 C 10.5 1.21875 9.296875 0.722656 8.296875 -0.265625 C 7.304688 -1.265625 6.8125 -2.46875 6.8125 -3.875 C 6.8125 -5.300781 7.300781 -6.523438 8.28125 -7.546875 C 9.269531 -8.578125 10.476562 -9.09375 11.90625 -9.09375 Z M 11.90625 -9.09375 "/></g></g></g><g fill="#fdfdfd" fill-opacity="1"><g transform="translate(378.506649, 339.62004)"><g><path d="M 4.09375 0 L 1.953125 0 L 1.953125 -15.40625 L 4.09375 -15.40625 Z M 4.09375 0 "/></g></g><g transform="translate(384.553524, 339.62004)"><g/></g><g transform="translate(389.979304, 339.62004)"><g><path d="M 9.109375 0 C 8.898438 0 8.738281 -0.03125 8.625 -0.09375 C 8.519531 -0.15625 8.453125 -0.285156 8.421875 -0.484375 L 8.15625 -1.546875 C 7.863281 -1.273438 7.570312 -1.03125 7.28125 -0.8125 C 7 -0.601562 6.703125 -0.421875 6.390625 -0.265625 C 6.078125 -0.117188 5.738281 -0.0078125 5.375 0.0625 C 5.019531 0.132812 4.628906 0.171875 4.203125 0.171875 C 3.753906 0.171875 3.335938 0.113281 2.953125 0 C 2.566406 -0.125 2.222656 -0.3125 1.921875 -0.5625 C 1.628906 -0.820312 1.398438 -1.140625 1.234375 -1.515625 C 1.066406 -1.898438 0.984375 -2.347656 0.984375 -2.859375 C 0.984375 -3.316406 1.101562 -3.753906 1.34375 -4.171875 C 1.59375 -4.585938 1.992188 -4.957031 2.546875 -5.28125 C 3.109375 -5.613281 3.832031 -5.882812 4.71875 -6.09375 C 5.613281 -6.300781 6.707031 -6.421875 8 -6.453125 L 8 -7.328125 C 8 -8.210938 7.8125 -8.878906 7.4375 -9.328125 C 7.0625 -9.785156 6.507812 -10.015625 5.78125 -10.015625 C 5.289062 -10.015625 4.878906 -9.953125 4.546875 -9.828125 C 4.222656 -9.703125 3.9375 -9.5625 3.6875 -9.40625 C 3.445312 -9.257812 3.238281 -9.125 3.0625 -9 C 2.882812 -8.875 2.707031 -8.8125 2.53125 -8.8125 C 2.394531 -8.8125 2.273438 -8.847656 2.171875 -8.921875 C 2.066406 -8.992188 1.984375 -9.082031 1.921875 -9.1875 L 1.546875 -9.84375 C 2.179688 -10.457031 2.863281 -10.910156 3.59375 -11.203125 C 4.320312 -11.503906 5.132812 -11.65625 6.03125 -11.65625 C 6.664062 -11.65625 7.234375 -11.550781 7.734375 -11.34375 C 8.234375 -11.144531 8.648438 -10.851562 8.984375 -10.46875 C 9.328125 -10.082031 9.582031 -9.625 9.75 -9.09375 C 9.925781 -8.5625 10.015625 -7.972656 10.015625 -7.328125 L 10.015625 0 Z M 4.8125 -1.265625 C 5.15625 -1.265625 5.472656 -1.300781 5.765625 -1.375 C 6.054688 -1.445312 6.328125 -1.546875 6.578125 -1.671875 C 6.835938 -1.796875 7.082031 -1.953125 7.3125 -2.140625 C 7.550781 -2.335938 7.78125 -2.554688 8 -2.796875 L 8 -5.15625 C 7.09375 -5.113281 6.316406 -5.035156 5.671875 -4.921875 C 5.035156 -4.816406 4.515625 -4.671875 4.109375 -4.484375 C 3.703125 -4.296875 3.410156 -4.070312 3.234375 -3.8125 C 3.054688 -3.5625 2.96875 -3.28125 2.96875 -2.96875 C 2.96875 -2.664062 3.015625 -2.40625 3.109375 -2.1875 C 3.210938 -1.976562 3.34375 -1.804688 3.5 -1.671875 C 3.664062 -1.535156 3.863281 -1.429688 4.09375 -1.359375 C 4.320312 -1.296875 4.5625 -1.265625 4.8125 -1.265625 Z M 4.8125 -1.265625 "/></g></g><g transform="translate(401.475397, 339.62004)"><g><path d="M 1.71875 0 L 1.71875 -11.46875 L 2.9375 -11.46875 C 3.09375 -11.46875 3.21875 -11.429688 3.3125 -11.359375 C 3.40625 -11.296875 3.457031 -11.191406 3.46875 -11.046875 L 3.640625 -9.875 C 3.859375 -10.125 4.085938 -10.359375 4.328125 -10.578125 C 4.566406 -10.796875 4.820312 -10.984375 5.09375 -11.140625 C 5.375 -11.296875 5.671875 -11.414062 5.984375 -11.5 C 6.296875 -11.59375 6.625 -11.640625 6.96875 -11.640625 C 7.757812 -11.640625 8.398438 -11.421875 8.890625 -10.984375 C 9.390625 -10.554688 9.75 -9.984375 9.96875 -9.265625 C 10.125 -9.679688 10.335938 -10.035156 10.609375 -10.328125 C 10.878906 -10.628906 11.175781 -10.878906 11.5 -11.078125 C 11.832031 -11.273438 12.1875 -11.414062 12.5625 -11.5 C 12.9375 -11.59375 13.320312 -11.640625 13.71875 -11.640625 C 14.96875 -11.640625 15.929688 -11.265625 16.609375 -10.515625 C 17.296875 -9.765625 17.640625 -8.691406 17.640625 -7.296875 L 17.640625 0 L 15.578125 0 L 15.578125 -7.296875 C 15.578125 -8.191406 15.375 -8.867188 14.96875 -9.328125 C 14.5625 -9.785156 13.976562 -10.015625 13.21875 -10.015625 C 12.875 -10.015625 12.550781 -9.957031 12.25 -9.84375 C 11.945312 -9.726562 11.675781 -9.554688 11.4375 -9.328125 C 11.207031 -9.097656 11.023438 -8.8125 10.890625 -8.46875 C 10.753906 -8.132812 10.6875 -7.742188 10.6875 -7.296875 L 10.6875 0 L 8.625 0 L 8.625 -7.296875 C 8.625 -8.210938 8.429688 -8.894531 8.046875 -9.34375 C 7.671875 -9.789062 7.117188 -10.015625 6.390625 -10.015625 C 5.890625 -10.015625 5.421875 -9.878906 4.984375 -9.609375 C 4.546875 -9.347656 4.144531 -8.988281 3.78125 -8.53125 L 3.78125 0 Z M 1.71875 0 "/></g></g><g transform="translate(420.64727, 339.62004)"><g/></g><g transform="translate(426.07305, 339.62004)"><g><path d="M 9.109375 0 C 8.898438 0 8.738281 -0.03125 8.625 -0.09375 C 8.519531 -0.15625 8.453125 -0.285156 8.421875 -0.484375 L 8.15625 -1.546875 C 7.863281 -1.273438 7.570312 -1.03125 7.28125 -0.8125 C 7 -0.601562 6.703125 -0.421875 6.390625 -0.265625 C 6.078125 -0.117188 5.738281 -0.0078125 5.375 0.0625 C 5.019531 0.132812 4.628906 0.171875 4.203125 0.171875 C 3.753906 0.171875 3.335938 0.113281 2.953125 0 C 2.566406 -0.125 2.222656 -0.3125 1.921875 -0.5625 C 1.628906 -0.820312 1.398438 -1.140625 1.234375 -1.515625 C 1.066406 -1.898438 0.984375 -2.347656 0.984375 -2.859375 C 0.984375 -3.316406 1.101562 -3.753906 1.34375 -4.171875 C 1.59375 -4.585938 1.992188 -4.957031 2.546875 -5.28125 C 3.109375 -5.613281 3.832031 -5.882812 4.71875 -6.09375 C 5.613281 -6.300781 6.707031 -6.421875 8 -6.453125 L 8 -7.328125 C 8 -8.210938 7.8125 -8.878906 7.4375 -9.328125 C 7.0625 -9.785156 6.507812 -10.015625 5.78125 -10.015625 C 5.289062 -10.015625 4.878906 -9.953125 4.546875 -9.828125 C 4.222656 -9.703125 3.9375 -9.5625 3.6875 -9.40625 C 3.445312 -9.257812 3.238281 -9.125 3.0625 -9 C 2.882812 -8.875 2.707031 -8.8125 2.53125 -8.8125 C 2.394531 -8.8125 2.273438 -8.847656 2.171875 -8.921875 C 2.066406 -8.992188 1.984375 -9.082031 1.921875 -9.1875 L 1.546875 -9.84375 C 2.179688 -10.457031 2.863281 -10.910156 3.59375 -11.203125 C 4.320312 -11.503906 5.132812 -11.65625 6.03125 -11.65625 C 6.664062 -11.65625 7.234375 -11.550781 7.734375 -11.34375 C 8.234375 -11.144531 8.648438 -10.851562 8.984375 -10.46875 C 9.328125 -10.082031 9.582031 -9.625 9.75 -9.09375 C 9.925781 -8.5625 10.015625 -7.972656 10.015625 -7.328125 L 10.015625 0 Z M 4.8125 -1.265625 C 5.15625 -1.265625 5.472656 -1.300781 5.765625 -1.375 C 6.054688 -1.445312 6.328125 -1.546875 6.578125 -1.671875 C 6.835938 -1.796875 7.082031 -1.953125 7.3125 -2.140625 C 7.550781 -2.335938 7.78125 -2.554688 8 -2.796875 L 8 -5.15625 C 7.09375 -5.113281 6.316406 -5.035156 5.671875 -4.921875 C 5.035156 -4.816406 4.515625 -4.671875 4.109375 -4.484375 C 3.703125 -4.296875 3.410156 -4.070312 3.234375 -3.8125 C 3.054688 -3.5625 2.96875 -3.28125 2.96875 -2.96875 C 2.96875 -2.664062 3.015625 -2.40625 3.109375 -2.1875 C 3.210938 -1.976562 3.34375 -1.804688 3.5 -1.671875 C 3.664062 -1.535156 3.863281 -1.429688 4.09375 -1.359375 C 4.320312 -1.296875 4.5625 -1.265625 4.8125 -1.265625 Z M 4.8125 -1.265625 "/></g></g><g transform="translate(437.569143, 339.62004)"><g/></g><g transform="translate(442.994923, 339.62004)"><g><path d="M 10.34375 -15.40625 L 10.34375 -13.671875 L 3.765625 -13.671875 L 3.765625 -8.328125 L 9.359375 -8.328125 L 9.359375 -6.59375 L 3.765625 -6.59375 L 3.765625 0 L 1.625 0 L 1.625 -15.40625 Z M 10.34375 -15.40625 "/></g></g><g transform="translate(454.022266, 339.62004)"><g><path d="M 1.53125 0 L 1.53125 -11.46875 L 2.71875 -11.46875 C 2.9375 -11.46875 3.085938 -11.421875 3.171875 -11.328125 C 3.265625 -11.242188 3.320312 -11.101562 3.34375 -10.90625 L 3.484375 -9.21875 C 3.835938 -9.96875 4.269531 -10.5625 4.78125 -11 C 5.300781 -11.4375 5.921875 -11.65625 6.640625 -11.65625 C 6.890625 -11.65625 7.117188 -11.628906 7.328125 -11.578125 C 7.535156 -11.535156 7.726562 -11.453125 7.90625 -11.328125 L 7.734375 -9.8125 C 7.710938 -9.613281 7.601562 -9.515625 7.40625 -9.515625 C 7.300781 -9.515625 7.144531 -9.535156 6.9375 -9.578125 C 6.738281 -9.617188 6.519531 -9.640625 6.28125 -9.640625 C 5.925781 -9.640625 5.613281 -9.585938 5.34375 -9.484375 C 5.082031 -9.378906 4.84375 -9.222656 4.625 -9.015625 C 4.40625 -8.804688 4.210938 -8.550781 4.046875 -8.25 C 3.890625 -7.957031 3.738281 -7.625 3.59375 -7.25 L 3.59375 0 Z M 1.53125 0 "/></g></g><g transform="translate(462.389452, 339.62004)"><g><path d="M 6.34375 -11.640625 C 7.175781 -11.640625 7.925781 -11.5 8.59375 -11.21875 C 9.269531 -10.945312 9.84375 -10.550781 10.3125 -10.03125 C 10.78125 -9.519531 11.140625 -8.898438 11.390625 -8.171875 C 11.648438 -7.453125 11.78125 -6.644531 11.78125 -5.75 C 11.78125 -4.84375 11.648438 -4.023438 11.390625 -3.296875 C 11.140625 -2.566406 10.78125 -1.945312 10.3125 -1.4375 C 9.84375 -0.925781 9.269531 -0.53125 8.59375 -0.25 C 7.925781 0.03125 7.175781 0.171875 6.34375 0.171875 C 5.507812 0.171875 4.753906 0.03125 4.078125 -0.25 C 3.398438 -0.53125 2.820312 -0.925781 2.34375 -1.4375 C 1.875 -1.945312 1.507812 -2.566406 1.25 -3.296875 C 1 -4.023438 0.875 -4.84375 0.875 -5.75 C 0.875 -6.644531 1 -7.453125 1.25 -8.171875 C 1.507812 -8.898438 1.875 -9.519531 2.34375 -10.03125 C 2.820312 -10.550781 3.398438 -10.945312 4.078125 -11.21875 C 4.753906 -11.5 5.507812 -11.640625 6.34375 -11.640625 Z M 6.34375 -1.4375 C 6.894531 -1.4375 7.378906 -1.53125 7.796875 -1.71875 C 8.210938 -1.914062 8.554688 -2.195312 8.828125 -2.5625 C 9.109375 -2.9375 9.316406 -3.390625 9.453125 -3.921875 C 9.585938 -4.453125 9.65625 -5.054688 9.65625 -5.734375 C 9.65625 -6.410156 9.585938 -7.015625 9.453125 -7.546875 C 9.316406 -8.078125 9.109375 -8.523438 8.828125 -8.890625 C 8.554688 -9.265625 8.210938 -9.546875 7.796875 -9.734375 C 7.378906 -9.929688 6.894531 -10.03125 6.34375 -10.03125 C 5.78125 -10.03125 5.289062 -9.929688 4.875 -9.734375 C 4.457031 -9.546875 4.109375 -9.265625 3.828125 -8.890625 C 3.546875 -8.523438 3.335938 -8.078125 3.203125 -7.546875 C 3.066406 -7.015625 3 -6.410156 3 -5.734375 C 3 -5.054688 3.066406 -4.453125 3.203125 -3.921875 C 3.335938 -3.390625 3.546875 -2.9375 3.828125 -2.5625 C 4.109375 -2.195312 4.457031 -1.914062 4.875 -1.71875 C 5.289062 -1.53125 5.78125 -1.4375 6.34375 -1.4375 Z M 6.34375 -1.4375 "/></g></g><g transform="translate(475.045701, 339.62004)"><g><path d="M 1.640625 0 L 1.640625 -11.46875 L 2.875 -11.46875 C 3.019531 -11.46875 3.140625 -11.429688 3.234375 -11.359375 C 3.328125 -11.296875 3.382812 -11.191406 3.40625 -11.046875 L 3.578125 -9.828125 C 4.066406 -10.367188 4.613281 -10.804688 5.21875 -11.140625 C 5.832031 -11.472656 6.539062 -11.640625 7.34375 -11.640625 C 7.96875 -11.640625 8.515625 -11.535156 8.984375 -11.328125 C 9.453125 -11.117188 9.847656 -10.820312 10.171875 -10.4375 C 10.492188 -10.0625 10.734375 -9.609375 10.890625 -9.078125 C 11.054688 -8.546875 11.140625 -7.953125 11.140625 -7.296875 L 11.140625 0 L 9.078125 0 L 9.078125 -7.296875 C 9.078125 -8.148438 8.882812 -8.816406 8.5 -9.296875 C 8.113281 -9.773438 7.523438 -10.015625 6.734375 -10.015625 C 6.148438 -10.015625 5.601562 -9.875 5.09375 -9.59375 C 4.59375 -9.3125 4.128906 -8.925781 3.703125 -8.4375 L 3.703125 0 Z M 1.640625 0 "/></g></g><g transform="translate(487.655075, 339.62004)"><g><path d="M 4.890625 0.171875 C 4.003906 0.171875 3.320312 -0.078125 2.84375 -0.578125 C 2.375 -1.085938 2.140625 -1.816406 2.140625 -2.765625 L 2.140625 -9.75 L 0.828125 -9.75 C 0.703125 -9.75 0.597656 -9.785156 0.515625 -9.859375 C 0.441406 -9.941406 0.40625 -10.054688 0.40625 -10.203125 L 0.40625 -11.03125 L 2.203125 -11.265625 L 2.6875 -14.796875 C 2.695312 -14.910156 2.742188 -15 2.828125 -15.0625 C 2.910156 -15.132812 3.015625 -15.171875 3.140625 -15.171875 L 4.203125 -15.171875 L 4.203125 -11.25 L 7.34375 -11.25 L 7.34375 -9.75 L 4.203125 -9.75 L 4.203125 -2.90625 C 4.203125 -2.4375 4.304688 -2.082031 4.515625 -1.84375 C 4.734375 -1.613281 5.015625 -1.5 5.359375 -1.5 C 5.554688 -1.5 5.726562 -1.523438 5.875 -1.578125 C 6.019531 -1.640625 6.144531 -1.703125 6.25 -1.765625 C 6.351562 -1.835938 6.441406 -1.898438 6.515625 -1.953125 C 6.585938 -2.015625 6.65625 -2.046875 6.71875 -2.046875 C 6.789062 -2.046875 6.847656 -2.03125 6.890625 -2 C 6.929688 -1.96875 6.972656 -1.914062 7.015625 -1.84375 L 7.625 -0.859375 C 7.269531 -0.523438 6.851562 -0.269531 6.375 -0.09375 C 5.894531 0.0820312 5.398438 0.171875 4.890625 0.171875 Z M 4.890625 0.171875 "/></g></g><g transform="translate(495.694136, 339.62004)"><g><path d="M 0.875 -7.65625 L 6.484375 -7.65625 L 6.484375 -5.90625 L 0.875 -5.90625 Z M 0.875 -7.65625 "/></g></g><g transform="translate(503.041791, 339.62004)"><g><path d="M 10.703125 -15.40625 L 10.703125 -13.671875 L 3.84375 -13.671875 L 3.84375 -8.609375 L 9.359375 -8.609375 L 9.359375 -6.9375 L 3.84375 -6.9375 L 3.84375 -1.734375 L 10.71875 -1.734375 L 10.703125 0 L 1.703125 0 L 1.703125 -15.40625 Z M 10.703125 -15.40625 "/></g></g><g transform="translate(514.76054, 339.62004)"><g><path d="M 1.640625 0 L 1.640625 -11.46875 L 2.875 -11.46875 C 3.019531 -11.46875 3.140625 -11.429688 3.234375 -11.359375 C 3.328125 -11.296875 3.382812 -11.191406 3.40625 -11.046875 L 3.578125 -9.828125 C 4.066406 -10.367188 4.613281 -10.804688 5.21875 -11.140625 C 5.832031 -11.472656 6.539062 -11.640625 7.34375 -11.640625 C 7.96875 -11.640625 8.515625 -11.535156 8.984375 -11.328125 C 9.453125 -11.117188 9.847656 -10.820312 10.171875 -10.4375 C 10.492188 -10.0625 10.734375 -9.609375 10.890625 -9.078125 C 11.054688 -8.546875 11.140625 -7.953125 11.140625 -7.296875 L 11.140625 0 L 9.078125 0 L 9.078125 -7.296875 C 9.078125 -8.148438 8.882812 -8.816406 8.5 -9.296875 C 8.113281 -9.773438 7.523438 -10.015625 6.734375 -10.015625 C 6.148438 -10.015625 5.601562 -9.875 5.09375 -9.59375 C 4.59375 -9.3125 4.128906 -8.925781 3.703125 -8.4375 L 3.703125 0 Z M 1.640625 0 "/></g></g><g transform="translate(527.369914, 339.62004)"><g><path d="M 9.6875 0 C 9.539062 0 9.421875 -0.03125 9.328125 -0.09375 C 9.234375 -0.164062 9.179688 -0.273438 9.171875 -0.421875 L 8.953125 -1.796875 C 8.472656 -1.210938 7.921875 -0.738281 7.296875 -0.375 C 6.679688 -0.0078125 5.96875 0.171875 5.15625 0.171875 C 4.507812 0.171875 3.921875 0.046875 3.390625 -0.203125 C 2.867188 -0.460938 2.421875 -0.835938 2.046875 -1.328125 C 1.671875 -1.828125 1.378906 -2.441406 1.171875 -3.171875 C 0.972656 -3.898438 0.875 -4.742188 0.875 -5.703125 C 0.875 -6.546875 0.984375 -7.332031 1.203125 -8.0625 C 1.421875 -8.789062 1.738281 -9.421875 2.15625 -9.953125 C 2.582031 -10.484375 3.097656 -10.898438 3.703125 -11.203125 C 4.316406 -11.503906 5.003906 -11.65625 5.765625 -11.65625 C 6.460938 -11.65625 7.054688 -11.539062 7.546875 -11.3125 C 8.035156 -11.082031 8.472656 -10.753906 8.859375 -10.328125 L 8.859375 -16.671875 L 10.921875 -16.671875 L 10.921875 0 Z M 5.828125 -1.484375 C 6.472656 -1.484375 7.035156 -1.632812 7.515625 -1.9375 C 7.992188 -2.238281 8.441406 -2.660156 8.859375 -3.203125 L 8.859375 -8.75 C 8.492188 -9.238281 8.09375 -9.582031 7.65625 -9.78125 C 7.226562 -9.976562 6.753906 -10.078125 6.234375 -10.078125 C 5.191406 -10.078125 4.390625 -9.695312 3.828125 -8.9375 C 3.265625 -8.1875 2.984375 -7.109375 2.984375 -5.703125 C 2.984375 -4.953125 3.046875 -4.3125 3.171875 -3.78125 C 3.304688 -3.25 3.492188 -2.8125 3.734375 -2.46875 C 3.984375 -2.132812 4.28125 -1.882812 4.625 -1.71875 C 4.976562 -1.5625 5.378906 -1.484375 5.828125 -1.484375 Z M 5.828125 -1.484375 "/></g></g><g transform="translate(539.979287, 339.62004)"><g/></g><g transform="translate(545.405068, 339.62004)"><g><path d="M 13.96875 -7.703125 C 13.96875 -6.546875 13.796875 -5.492188 13.453125 -4.546875 C 13.117188 -3.597656 12.644531 -2.785156 12.03125 -2.109375 C 11.414062 -1.441406 10.675781 -0.921875 9.8125 -0.546875 C 8.945312 -0.179688 7.992188 0 6.953125 0 L 1.625 0 L 1.625 -15.40625 L 6.953125 -15.40625 C 7.992188 -15.40625 8.945312 -15.21875 9.8125 -14.84375 C 10.675781 -14.46875 11.414062 -13.941406 12.03125 -13.265625 C 12.644531 -12.597656 13.117188 -11.789062 13.453125 -10.84375 C 13.796875 -9.894531 13.96875 -8.847656 13.96875 -7.703125 Z M 11.78125 -7.703125 C 11.78125 -8.640625 11.664062 -9.476562 11.4375 -10.21875 C 11.207031 -10.957031 10.878906 -11.582031 10.453125 -12.09375 C 10.035156 -12.613281 9.53125 -13.003906 8.9375 -13.265625 C 8.34375 -13.535156 7.679688 -13.671875 6.953125 -13.671875 L 3.78125 -13.671875 L 3.78125 -1.71875 L 6.953125 -1.71875 C 7.679688 -1.71875 8.34375 -1.851562 8.9375 -2.125 C 9.53125 -2.394531 10.035156 -2.785156 10.453125 -3.296875 C 10.878906 -3.804688 11.207031 -4.429688 11.4375 -5.171875 C 11.664062 -5.921875 11.78125 -6.765625 11.78125 -7.703125 Z M 11.78125 -7.703125 "/></g></g><g transform="translate(560.170691, 339.62004)"><g><path d="M 6.265625 -11.640625 C 6.953125 -11.640625 7.585938 -11.523438 8.171875 -11.296875 C 8.765625 -11.066406 9.273438 -10.734375 9.703125 -10.296875 C 10.128906 -9.859375 10.460938 -9.320312 10.703125 -8.6875 C 10.953125 -8.0625 11.078125 -7.335938 11.078125 -6.515625 C 11.078125 -6.191406 11.039062 -5.976562 10.96875 -5.875 C 10.894531 -5.769531 10.765625 -5.71875 10.578125 -5.71875 L 2.921875 -5.71875 C 2.929688 -5 3.023438 -4.367188 3.203125 -3.828125 C 3.390625 -3.296875 3.640625 -2.851562 3.953125 -2.5 C 4.273438 -2.15625 4.65625 -1.894531 5.09375 -1.71875 C 5.53125 -1.539062 6.015625 -1.453125 6.546875 -1.453125 C 7.046875 -1.453125 7.476562 -1.507812 7.84375 -1.625 C 8.21875 -1.738281 8.535156 -1.863281 8.796875 -2 C 9.054688 -2.144531 9.273438 -2.273438 9.453125 -2.390625 C 9.640625 -2.503906 9.796875 -2.5625 9.921875 -2.5625 C 10.015625 -2.5625 10.09375 -2.539062 10.15625 -2.5 C 10.21875 -2.46875 10.269531 -2.421875 10.3125 -2.359375 L 10.90625 -1.609375 C 10.644531 -1.304688 10.335938 -1.039062 9.984375 -0.8125 C 9.640625 -0.59375 9.269531 -0.410156 8.875 -0.265625 C 8.476562 -0.117188 8.066406 -0.0078125 7.640625 0.0625 C 7.210938 0.132812 6.789062 0.171875 6.375 0.171875 C 5.582031 0.171875 4.847656 0.0351562 4.171875 -0.234375 C 3.503906 -0.503906 2.925781 -0.894531 2.4375 -1.40625 C 1.945312 -1.925781 1.5625 -2.566406 1.28125 -3.328125 C 1.007812 -4.097656 0.875 -4.976562 0.875 -5.96875 C 0.875 -6.757812 1 -7.5 1.25 -8.1875 C 1.5 -8.882812 1.851562 -9.488281 2.3125 -10 C 2.78125 -10.507812 3.347656 -10.910156 4.015625 -11.203125 C 4.679688 -11.492188 5.429688 -11.640625 6.265625 -11.640625 Z M 6.3125 -10.140625 C 5.34375 -10.140625 4.578125 -9.859375 4.015625 -9.296875 C 3.460938 -8.734375 3.117188 -7.960938 2.984375 -6.984375 L 9.21875 -6.984375 C 9.21875 -7.441406 9.148438 -7.863281 9.015625 -8.25 C 8.890625 -8.644531 8.703125 -8.976562 8.453125 -9.25 C 8.203125 -9.53125 7.894531 -9.75 7.53125 -9.90625 C 7.164062 -10.0625 6.757812 -10.140625 6.3125 -10.140625 Z M 6.3125 -10.140625 "/></g></g><g transform="translate(572.112096, 339.62004)"><g><path d="M 6.359375 0 L 4.484375 0 L 0.21875 -11.46875 L 1.921875 -11.46875 C 2.078125 -11.46875 2.207031 -11.421875 2.3125 -11.328125 C 2.425781 -11.242188 2.503906 -11.148438 2.546875 -11.046875 L 5 -3.703125 C 5.09375 -3.429688 5.175781 -3.164062 5.25 -2.90625 C 5.320312 -2.644531 5.390625 -2.382812 5.453125 -2.125 C 5.503906 -2.382812 5.566406 -2.644531 5.640625 -2.90625 C 5.710938 -3.164062 5.804688 -3.429688 5.921875 -3.703125 L 8.40625 -11.046875 C 8.445312 -11.160156 8.519531 -11.257812 8.625 -11.34375 C 8.738281 -11.425781 8.859375 -11.46875 8.984375 -11.46875 L 10.625 -11.46875 Z M 6.359375 0 "/></g></g><g transform="translate(582.951939, 339.62004)"><g><path d="M 6.265625 -11.640625 C 6.953125 -11.640625 7.585938 -11.523438 8.171875 -11.296875 C 8.765625 -11.066406 9.273438 -10.734375 9.703125 -10.296875 C 10.128906 -9.859375 10.460938 -9.320312 10.703125 -8.6875 C 10.953125 -8.0625 11.078125 -7.335938 11.078125 -6.515625 C 11.078125 -6.191406 11.039062 -5.976562 10.96875 -5.875 C 10.894531 -5.769531 10.765625 -5.71875 10.578125 -5.71875 L 2.921875 -5.71875 C 2.929688 -5 3.023438 -4.367188 3.203125 -3.828125 C 3.390625 -3.296875 3.640625 -2.851562 3.953125 -2.5 C 4.273438 -2.15625 4.65625 -1.894531 5.09375 -1.71875 C 5.53125 -1.539062 6.015625 -1.453125 6.546875 -1.453125 C 7.046875 -1.453125 7.476562 -1.507812 7.84375 -1.625 C 8.21875 -1.738281 8.535156 -1.863281 8.796875 -2 C 9.054688 -2.144531 9.273438 -2.273438 9.453125 -2.390625 C 9.640625 -2.503906 9.796875 -2.5625 9.921875 -2.5625 C 10.015625 -2.5625 10.09375 -2.539062 10.15625 -2.5 C 10.21875 -2.46875 10.269531 -2.421875 10.3125 -2.359375 L 10.90625 -1.609375 C 10.644531 -1.304688 10.335938 -1.039062 9.984375 -0.8125 C 9.640625 -0.59375 9.269531 -0.410156 8.875 -0.265625 C 8.476562 -0.117188 8.066406 -0.0078125 7.640625 0.0625 C 7.210938 0.132812 6.789062 0.171875 6.375 0.171875 C 5.582031 0.171875 4.847656 0.0351562 4.171875 -0.234375 C 3.503906 -0.503906 2.925781 -0.894531 2.4375 -1.40625 C 1.945312 -1.925781 1.5625 -2.566406 1.28125 -3.328125 C 1.007812 -4.097656 0.875 -4.976562 0.875 -5.96875 C 0.875 -6.757812 1 -7.5 1.25 -8.1875 C 1.5 -8.882812 1.851562 -9.488281 2.3125 -10 C 2.78125 -10.507812 3.347656 -10.910156 4.015625 -11.203125 C 4.679688 -11.492188 5.429688 -11.640625 6.265625 -11.640625 Z M 6.3125 -10.140625 C 5.34375 -10.140625 4.578125 -9.859375 4.015625 -9.296875 C 3.460938 -8.734375 3.117188 -7.960938 2.984375 -6.984375 L 9.21875 -6.984375 C 9.21875 -7.441406 9.148438 -7.863281 9.015625 -8.25 C 8.890625 -8.644531 8.703125 -8.976562 8.453125 -9.25 C 8.203125 -9.53125 7.894531 -9.75 7.53125 -9.90625 C 7.164062 -10.0625 6.757812 -10.140625 6.3125 -10.140625 Z M 6.3125 -10.140625 "/></g></g><g transform="translate(594.893344, 339.62004)"><g><path d="M 3.78125 -16.671875 L 3.78125 0 L 1.71875 0 L 1.71875 -16.671875 Z M 3.78125 -16.671875 "/></g></g><g transform="translate(600.401155, 339.62004)"><g><path d="M 6.34375 -11.640625 C 7.175781 -11.640625 7.925781 -11.5 8.59375 -11.21875 C 9.269531 -10.945312 9.84375 -10.550781 10.3125 -10.03125 C 10.78125 -9.519531 11.140625 -8.898438 11.390625 -8.171875 C 11.648438 -7.453125 11.78125 -6.644531 11.78125 -5.75 C 11.78125 -4.84375 11.648438 -4.023438 11.390625 -3.296875 C 11.140625 -2.566406 10.78125 -1.945312 10.3125 -1.4375 C 9.84375 -0.925781 9.269531 -0.53125 8.59375 -0.25 C 7.925781 0.03125 7.175781 0.171875 6.34375 0.171875 C 5.507812 0.171875 4.753906 0.03125 4.078125 -0.25 C 3.398438 -0.53125 2.820312 -0.925781 2.34375 -1.4375 C 1.875 -1.945312 1.507812 -2.566406 1.25 -3.296875 C 1 -4.023438 0.875 -4.84375 0.875 -5.75 C 0.875 -6.644531 1 -7.453125 1.25 -8.171875 C 1.507812 -8.898438 1.875 -9.519531 2.34375 -10.03125 C 2.820312 -10.550781 3.398438 -10.945312 4.078125 -11.21875 C 4.753906 -11.5 5.507812 -11.640625 6.34375 -11.640625 Z M 6.34375 -1.4375 C 6.894531 -1.4375 7.378906 -1.53125 7.796875 -1.71875 C 8.210938 -1.914062 8.554688 -2.195312 8.828125 -2.5625 C 9.109375 -2.9375 9.316406 -3.390625 9.453125 -3.921875 C 9.585938 -4.453125 9.65625 -5.054688 9.65625 -5.734375 C 9.65625 -6.410156 9.585938 -7.015625 9.453125 -7.546875 C 9.316406 -8.078125 9.109375 -8.523438 8.828125 -8.890625 C 8.554688 -9.265625 8.210938 -9.546875 7.796875 -9.734375 C 7.378906 -9.929688 6.894531 -10.03125 6.34375 -10.03125 C 5.78125 -10.03125 5.289062 -9.929688 4.875 -9.734375 C 4.457031 -9.546875 4.109375 -9.265625 3.828125 -8.890625 C 3.546875 -8.523438 3.335938 -8.078125 3.203125 -7.546875 C 3.066406 -7.015625 3 -6.410156 3 -5.734375 C 3 -5.054688 3.066406 -4.453125 3.203125 -3.921875 C 3.335938 -3.390625 3.546875 -2.9375 3.828125 -2.5625 C 4.109375 -2.195312 4.457031 -1.914062 4.875 -1.71875 C 5.289062 -1.53125 5.78125 -1.4375 6.34375 -1.4375 Z M 6.34375 -1.4375 "/></g></g><g transform="translate(613.057404, 339.62004)"><g><path d="M 1.65625 3.875 L 1.65625 -11.46875 L 2.890625 -11.46875 C 3.035156 -11.46875 3.15625 -11.429688 3.25 -11.359375 C 3.34375 -11.296875 3.394531 -11.191406 3.40625 -11.046875 L 3.609375 -9.703125 C 4.097656 -10.285156 4.65625 -10.753906 5.28125 -11.109375 C 5.90625 -11.472656 6.625 -11.65625 7.4375 -11.65625 C 8.09375 -11.65625 8.6875 -11.53125 9.21875 -11.28125 C 9.75 -11.03125 10.203125 -10.65625 10.578125 -10.15625 C 10.953125 -9.664062 11.238281 -9.054688 11.4375 -8.328125 C 11.644531 -7.609375 11.75 -6.769531 11.75 -5.8125 C 11.75 -4.96875 11.632812 -4.179688 11.40625 -3.453125 C 11.175781 -2.722656 10.847656 -2.085938 10.421875 -1.546875 C 9.992188 -1.015625 9.472656 -0.59375 8.859375 -0.28125 C 8.253906 0.0195312 7.570312 0.171875 6.8125 0.171875 C 6.113281 0.171875 5.519531 0.0507812 5.03125 -0.1875 C 4.539062 -0.425781 4.101562 -0.753906 3.71875 -1.171875 L 3.71875 3.875 Z M 6.75 -10.015625 C 6.113281 -10.015625 5.550781 -9.863281 5.0625 -9.5625 C 4.570312 -9.269531 4.125 -8.847656 3.71875 -8.296875 L 3.71875 -2.765625 C 4.070312 -2.273438 4.46875 -1.929688 4.90625 -1.734375 C 5.34375 -1.535156 5.828125 -1.4375 6.359375 -1.4375 C 7.398438 -1.4375 8.203125 -1.8125 8.765625 -2.5625 C 9.335938 -3.320312 9.625 -4.40625 9.625 -5.8125 C 9.625 -6.550781 9.554688 -7.1875 9.421875 -7.71875 C 9.296875 -8.25 9.109375 -8.6875 8.859375 -9.03125 C 8.617188 -9.375 8.320312 -9.625 7.96875 -9.78125 C 7.613281 -9.9375 7.207031 -10.015625 6.75 -10.015625 Z M 6.75 -10.015625 "/></g></g><g transform="translate(625.666778, 339.62004)"><g><path d="M 6.265625 -11.640625 C 6.953125 -11.640625 7.585938 -11.523438 8.171875 -11.296875 C 8.765625 -11.066406 9.273438 -10.734375 9.703125 -10.296875 C 10.128906 -9.859375 10.460938 -9.320312 10.703125 -8.6875 C 10.953125 -8.0625 11.078125 -7.335938 11.078125 -6.515625 C 11.078125 -6.191406 11.039062 -5.976562 10.96875 -5.875 C 10.894531 -5.769531 10.765625 -5.71875 10.578125 -5.71875 L 2.921875 -5.71875 C 2.929688 -5 3.023438 -4.367188 3.203125 -3.828125 C 3.390625 -3.296875 3.640625 -2.851562 3.953125 -2.5 C 4.273438 -2.15625 4.65625 -1.894531 5.09375 -1.71875 C 5.53125 -1.539062 6.015625 -1.453125 6.546875 -1.453125 C 7.046875 -1.453125 7.476562 -1.507812 7.84375 -1.625 C 8.21875 -1.738281 8.535156 -1.863281 8.796875 -2 C 9.054688 -2.144531 9.273438 -2.273438 9.453125 -2.390625 C 9.640625 -2.503906 9.796875 -2.5625 9.921875 -2.5625 C 10.015625 -2.5625 10.09375 -2.539062 10.15625 -2.5 C 10.21875 -2.46875 10.269531 -2.421875 10.3125 -2.359375 L 10.90625 -1.609375 C 10.644531 -1.304688 10.335938 -1.039062 9.984375 -0.8125 C 9.640625 -0.59375 9.269531 -0.410156 8.875 -0.265625 C 8.476562 -0.117188 8.066406 -0.0078125 7.640625 0.0625 C 7.210938 0.132812 6.789062 0.171875 6.375 0.171875 C 5.582031 0.171875 4.847656 0.0351562 4.171875 -0.234375 C 3.503906 -0.503906 2.925781 -0.894531 2.4375 -1.40625 C 1.945312 -1.925781 1.5625 -2.566406 1.28125 -3.328125 C 1.007812 -4.097656 0.875 -4.976562 0.875 -5.96875 C 0.875 -6.757812 1 -7.5 1.25 -8.1875 C 1.5 -8.882812 1.851562 -9.488281 2.3125 -10 C 2.78125 -10.507812 3.347656 -10.910156 4.015625 -11.203125 C 4.679688 -11.492188 5.429688 -11.640625 6.265625 -11.640625 Z M 6.3125 -10.140625 C 5.34375 -10.140625 4.578125 -9.859375 4.015625 -9.296875 C 3.460938 -8.734375 3.117188 -7.960938 2.984375 -6.984375 L 9.21875 -6.984375 C 9.21875 -7.441406 9.148438 -7.863281 9.015625 -8.25 C 8.890625 -8.644531 8.703125 -8.976562 8.453125 -9.25 C 8.203125 -9.53125 7.894531 -9.75 7.53125 -9.90625 C 7.164062 -10.0625 6.757812 -10.140625 6.3125 -10.140625 Z M 6.3125 -10.140625 "/></g></g><g transform="translate(637.608182, 339.62004)"><g><path d="M 1.53125 0 L 1.53125 -11.46875 L 2.71875 -11.46875 C 2.9375 -11.46875 3.085938 -11.421875 3.171875 -11.328125 C 3.265625 -11.242188 3.320312 -11.101562 3.34375 -10.90625 L 3.484375 -9.21875 C 3.835938 -9.96875 4.269531 -10.5625 4.78125 -11 C 5.300781 -11.4375 5.921875 -11.65625 6.640625 -11.65625 C 6.890625 -11.65625 7.117188 -11.628906 7.328125 -11.578125 C 7.535156 -11.535156 7.726562 -11.453125 7.90625 -11.328125 L 7.734375 -9.8125 C 7.710938 -9.613281 7.601562 -9.515625 7.40625 -9.515625 C 7.300781 -9.515625 7.144531 -9.535156 6.9375 -9.578125 C 6.738281 -9.617188 6.519531 -9.640625 6.28125 -9.640625 C 5.925781 -9.640625 5.613281 -9.585938 5.34375 -9.484375 C 5.082031 -9.378906 4.84375 -9.222656 4.625 -9.015625 C 4.40625 -8.804688 4.210938 -8.550781 4.046875 -8.25 C 3.890625 -7.957031 3.738281 -7.625 3.59375 -7.25 L 3.59375 0 Z M 1.53125 0 "/></g></g></g></svg>